<ttFont>
<head>
    <!-- Most of this table will be recalculated by the compiler -->
    <tableVersion value="1.0"/>
    <fontRevision value="2.01"/>
    <checkSumAdjustment value="0xc95867ab"/>
    <magicNumber value="0x5f0f3cf5"/>
    <flags value="00000000 00000011"/>
    <unitsPerEm value="1000"/>
    <created value="Wed Feb  7 19:19:50 2018"/>
    <modified value="Wed Feb  7 19:19:50 2018"/>
    <xMin value="-444"/>
    <yMin value="-651"/>
    <xMax value="1813"/>
    <yMax value="982"/>
    <macStyle value="00000000 00000001"/>
    <lowestRecPPEM value="3"/>
    <fontDirectionHint value="2"/>
    <indexToLocFormat value="0"/>
    <glyphDataFormat value="0"/>
  </head>
          <CharString index="0">
            -32 callsubr
            -49 -14 -53 callgsubr
            14 22 49 307 callgsubr
            4 hhcurveto
            86 vlineto
            -4 -13 3 -13 hhcurveto
            return
          </CharString>
          <CharString index="1">
            rmoveto
            91 -52 55 -111 -111 -51 -55 -91 -17 2 -17 1 -8 vhcurveto
            100 hlineto
            -1 7 -2 14 16 vvcurveto
            32 12 26 50 51 12 -24 -32 vhcurveto
            -128 340 callgsubr
            -26 -25 6 4 -11 vhcurveto
            61 -100 -236 vlineto
            -98 62 -70 123 128 callgsubr
            vhcurveto
            -75 callsubr
            return
          </CharString>
          <CharString index="2">
            -60 callgsubr
            -89 callsubr
            47 vlineto
            79 2 42 38 80 vvcurveto
            return
          </CharString>
          <CharString index="3">
            -107 callsubr
            -101 -47 -49 -92 hvcurveto
            -90 callgsubr
            return
          </CharString>
          <CharString index="4">
            -92 105 hlineto
            -100 callgsubr
            return
          </CharString>
          <CharString index="5">
            60 660 rmoveto
            -92 -85 90 -88 callsubr
            -88 return
          </CharString>
          <CharString index="6">
            0 12 -19 -40 vvcurveto
            -120 vlineto
            -39 -15 -25 -49 -18 -17 2 2 -16 vhcurveto
            110 -96 -262 -92 callsubr
            return
          </CharString>
          <CharString index="7">
            -17 callgsubr
            -99 callsubr
            return
          </CharString>
          <CharString index="8">
            -146 -97 callsubr
            return
          </CharString>
          <CharString index="9">
            -98 callgsubr
            117 -100 return
          </CharString>
          <CharString index="10">
            vlineto
            -91 callsubr
            return
          </CharString>
          <CharString index="11">
            -54 callsubr
            -93 callsubr
            return
          </CharString>
          <CharString index="12">
            26 153 429 rmoveto
            42 21 26 49 49 21 -26 -42 vhcurveto
            -101 -140 vlineto
            226 -316 rmoveto
            97 vlineto
            -7 -24 -47 -12 -54 hhcurveto
            -76 -25 24 49 hvcurveto
            80 241 188 vlineto
            93 -49 102 callgsubr
            -275 vlineto
            -105 60 -57 137 69 34 9 9 31 vhcurveto
            return
          </CharString>
          <CharString index="13">
            rmoveto
            36 12 19 26 28 -12 18 -36 -36 -11 -18 -28 -26 11 -19 36 hvcurveto
            152 hmoveto
            36 11 19 26 28 -11 18 -36 -36 -12 -18 -28 -26 12 -19 36 hvcurveto
            return
          </CharString>
          <CharString index="14">
            -6 callgsubr
            -44 -90 callsubr
            return
          </CharString>
          <CharString index="15">
            vlineto
            -96 callsubr
            return
          </CharString>
          <CharString index="16">
            -85 callgsubr
            -81 callgsubr
            return
          </CharString>
          <CharString index="17">
            -8 -51 -102 callgsubr
            return
          </CharString>
          <CharString index="18">
            1 callgsubr
            -24 -32 -4 -37 hhcurveto
            -83 -37 32 63 hvcurveto
            return
          </CharString>
          <CharString index="19">
            -575 -93 callgsubr
            return
          </CharString>
          <CharString index="20">
            -7 callsubr
            -109 163 callsubr
            158 return
          </CharString>
          <CharString index="21">
            108 callgsubr
            -61 callgsubr
            -174 vlineto
            -59 callgsubr
            return
          </CharString>
          <CharString index="22">
            rmoveto
            -93 52 -50 105 33 23 3 4 19 vhcurveto
            -79 268 callgsubr
            -93 vlineto
            -4 -19 -16 -3 -27 310 callgsubr
            52 vhcurveto
            154 168 93 85 return
          </CharString>
          <CharString index="23">
            64 48 158 rmoveto
            -98 60 102 callsubr
            366 vlineto
            97 -60 71 -128 -128 -60 -71 -97 vhcurveto
            268 -361 rmoveto
            -45 -23 -30 -57 -58 -22 30 45 vhcurveto
            356 vlineto
            45 22 29 58 57 23 -30 -44 vhcurveto
            return
          </CharString>
          <CharString index="24">
            -29 callsubr
            139 -276 -93 callgsubr
            return
          </CharString>
          <CharString index="25">
            -61 callsubr
            -12 callsubr
            return
          </CharString>
          <CharString index="26">
            120 callgsubr
            -36 -27 -10 0 hvcurveto
            -83 vlineto
            0 22 8 32 52 16 -22 -46 vhcurveto
            -169 vlineto
            -55 -19 -21 -98 -99 -19 15 53 vhcurveto
            17 vlineto
            41 18 15 51 vhcurveto
            61 89 -64 hlineto
            -51 -10 21 33 hvcurveto
            return
          </CharString>
          <CharString index="27">
            -100 67 -62 122 341 callgsubr
            31 vhcurveto
            return
          </CharString>
          <CharString index="28">
            vlineto
            -80 callsubr
            return
          </CharString>
          <CharString index="29">
            -85 287 -422 vlineto
            -96 callgsubr
            return
          </CharString>
          <CharString index="30">
            -85 287 -422 hlineto
            -104 callgsubr
            return
          </CharString>
          <CharString index="31">
            197 -99 callgsubr
            return
          </CharString>
          <CharString index="32">
            93 vlineto
            -13 -36 -32 -9 -50 hhcurveto
            -68 -30 121 callsubr
            11 29 -7 32 hhcurveto
            105 48 51 91 hvcurveto
            return
          </CharString>
          <CharString index="33">
            rmoveto
            103 vlineto
            33 11 22 49 50 11 -22 -33 vhcurveto
            -103 348 callgsubr
            return
          </CharString>
          <CharString index="34">
            vlineto
            33 -8 27 -1 4 vhcurveto
            return
          </CharString>
          <CharString index="35">
            575 89 85 return
          </CharString>
          <CharString index="36">
            -98 callgsubr
            142 vlineto
            8 -49 -56 6 -55 hhcurveto
            -128 -53 -66 -92 hvcurveto
            -194 -68 callsubr
            184 vlineto
            42 25 25 57 12 23 -1 -2 24 vhcurveto
            -237 -79 callsubr
            return
          </CharString>
          <CharString index="37">
            rmoveto
            -38 -58 -38 58 rlineto
            -58 hlineto
            55 -111 rlineto
            81 hlineto
            55 216 callgsubr
          </CharString>
          <CharString index="38">
            vlineto
            -86 44 -50 110 228 callgsubr
            135 109 -329 -72 callgsubr
            -189 -246 -105 107 vlineto
            73 callgsubr
            -19 4 -26 0 vhcurveto
            101 hlineto
            0 -4 23 19 vvcurveto
            305 callsubr
            8 -22 -32 vhcurveto
            endchar
          </CharString>
          <CharString index="39">
            vlineto
            -90 37 -51 107 1 vhcurveto
            2 23 1 0 hvcurveto
            94 vlineto
            -51 -1 -18 16 38 vvcurveto
            return
          </CharString>
          <CharString index="40">
            -57 callgsubr
            -14 33 45 hvcurveto
            return
          </CharString>
          <CharString index="41">
            107 350 682 rmoveto
            -261 vlineto
            1 -146 14 -80 1 -28 -11 29 -23 73 -46 119 -115 294 rcurveline
            -113 -682 106 265 hlineto
            146 -15 78 28 vvcurveto
            11 -28 23 -74 46 -119 117 -296 rcurveline
            111 682 hlineto
            return
          </CharString>
          <CharString index="42">
            -103 98 240 callsubr
            22 hhcurveto
            49 14 -23 -33 hvcurveto
            -148 vlineto
            -34 -9 -19 -39 -6 -7 198 callgsubr
            4 10 -1 9 hhcurveto
            100 37 53 86 hvcurveto
            159 vlineto
            91 -47 49 -101 94 callgsubr
            288 85 return
          </CharString>
          <CharString index="43">
            -63 callgsubr
            89 85 return
          </CharString>
          <CharString index="44">
            rmoveto
            -41 -111 rlineto
            61 hlineto
            67 216 callgsubr
          </CharString>
          <CharString index="45">
            88 vlineto
            -13 -42 -33 -5 -56 hhcurveto
            -71 -32 22 45 hvcurveto
            35 -38 callgsubr
            return
          </CharString>
          <CharString index="46">
            -50 callgsubr
            -8 return
          </CharString>
          <CharString index="47">
            rmoveto
            -18 -17 3 4 -14 hvcurveto
            30 vlineto
            86 -43 55 -112 112 callgsubr
            vhcurveto
            78 320 vlineto
            180 callsubr
            -11 -24 -51 vhcurveto
            return
          </CharString>
          <CharString index="48">
            0 12 -31 callsubr
            -120 vlineto
            -39 -15 -25 -49 return
          </CharString>
          <CharString index="49">
            -6 callgsubr
            -35 -101 callgsubr
            return
          </CharString>
          <CharString index="50">
            rmoveto
            44 13 158 callgsubr
            -13 -25 -32 -33 13 -25 44 hvcurveto
            return
          </CharString>
          <CharString index="51">
            -85 287 -422 hlineto
            -51 callgsubr
            return
          </CharString>
          <CharString index="52">
            -18 callsubr
            -483 -85 287 -71 -55 hlineto
            143 callgsubr
            return
          </CharString>
          <CharString index="53">
            -121 78 -68 143 46 54 7 11 36 vhcurveto
            return
          </CharString>
          <CharString index="54">
            -37 callsubr
            110 -96 -262 vlineto
            return
          </CharString>
          <CharString index="55">
            32 vlineto
            98 -51 39 -83 -27 -19 -5 0 vhcurveto
            -89 vlineto
            0 14 5 19 31 20 -15 -35 vhcurveto
            -25 vlineto
            -38 -13 -25 -58 -58 -13 26 38 vhcurveto
            206 vlineto
            32 11 21 50 vhcurveto
            return
          </CharString>
          <CharString index="56">
            -146 vlineto
            -23 callgsubr
          </CharString>
          <CharString index="57">
            21 53 hvcurveto
            85 vlineto
            -4 return
          </CharString>
          <CharString index="58">
            rmoveto
            -26 -137 rlineto
            41 hlineto
            16 21 36 171 callsubr
          </CharString>
          <CharString index="59">
            54 346 hmoveto
            104 hlineto
            -143 682 rlineto
            -151 hlineto
            -145 -682 rlineto
            105 hlineto
            34 175 rlineto
            161 hlineto
            return
          </CharString>
          <CharString index="60">
            -105 callsubr
            -105 134 rmoveto
            75 callgsubr
            -33 6 -28 12 -24 vhcurveto
            -10 -37 -41 -7 -34 -46 callgsubr
            return
          </CharString>
          <CharString index="61">
            -91 46 -51 109 31 23 5 3 12 vhcurveto
            return
          </CharString>
          <CharString index="62">
            -51 0 callsubr
            51 85 vhcurveto
            return
          </CharString>
          <CharString index="63">
            rmoveto
            57 hlineto
            -55 111 rlineto
            -81 hlineto
            -55 -111 rlineto
            58 hlineto
            38 58 rlineto
            endchar
          </CharString>
          <CharString index="64">
            -53 callsubr
            -54 callsubr
            return
          </CharString>
          <CharString index="65">
            -62 -21 28 40 hvcurveto
            106 vlineto
            157 -139 rlineto
            -26 vlineto
            -3 -16 -22 -6 -36 hhcurveto
            275 vmoveto
            35 23 -6 -6 16 307 callsubr
            -150 131 rlineto
            21 10 23 13 43 hhcurveto
            endchar
          </CharString>
          <CharString index="66">
            -22 -32 vhcurveto
            -145 vlineto
            -36 -12 -18 -49 vhcurveto
            -92 vlineto
            -1 return
          </CharString>
          <CharString index="67">
            -28 callgsubr
            -96 return
          </CharString>
          <CharString index="68">
            137 callsubr
            319 94 -211 203 183 95 -183 195 211 95 vlineto
            return
          </CharString>
          <CharString index="69">
            49 161 579 rmoveto
            -103 -579 108 461 hlineto
            11 22 26 9 29 hhcurveto
            33 18 -16 -34 hvcurveto
            -431 110 452 vlineto
            87 -53 42 -77 -47 -44 -18 -10 -22 vhcurveto
            return
          </CharString>
          <CharString index="70">
            -59 callsubr
            159 callsubr
            vhcurveto
            return
          </CharString>
          <CharString index="71">
            105 callgsubr
            vhcurveto
            -69 return
          </CharString>
          <CharString index="72">
            -22 25 37 -11 52 248 callsubr
            -93 callgsubr
            -441 -85 251 vlineto
            4 -418 rmoveto
            -4 -10 -27 -6 -32 hhcurveto
            -52 -22 239 callgsubr
            22 7 callgsubr
            12 vhcurveto
            endchar
          </CharString>
          <CharString index="73">
            390 254 -22 callsubr
            90 85 -823 -85 271 vlineto
            -53 callsubr
            -113 68 -56 125 -7 vhcurveto
            -131 -94 rlineto
            -4 vlineto
            133 -13 129 111 rlineto
            93 vlineto
            -9 -27 -37 -5 -32 -25 callgsubr
            return
          </CharString>
          <CharString index="74">
            -98 69 vlineto
            -2 -8 -28 -7 -32 hhcurveto
            -101 -47 46 91 hvcurveto
            167 vlineto
            92 47 49 101 vhcurveto
            13 13 -3 4 hhcurveto
            -86 vlineto
            -4 -8 1 -7 hhcurveto
            -49 -14 -22 -34 hvcurveto
            -161 vlineto
            -33 14 -22 49 28 21 6 2 9 vhcurveto
            return
          </CharString>
          <CharString index="75">
            112 callsubr
            -28 hhcurveto
            return
          </CharString>
          <CharString index="76">
            -19 -40 vvcurveto
            return
          </CharString>
          <CharString index="77">
            134 -7 callgsubr
            return
          </CharString>
          <CharString index="78">
            -101 callgsubr
            53 37 13 25 24 hvcurveto
            return
          </CharString>
          <CharString index="79">
            -317 vlineto
            -32 -9 -24 -51 -50 -10 24 32 vhcurveto
            return
          </CharString>
          <CharString index="80">
            hlineto
            -23 callgsubr
          </CharString>
          <CharString index="81">
            97 callsubr
            endchar
          </CharString>
          <CharString index="82">
            rmoveto
            24 20 vlineto
            121 55 49 103 hvcurveto
            57 349 callsubr
            4 -21 182 callgsubr
            20 20 vvcurveto
            36 7 22 145 callgsubr
            return
          </CharString>
          <CharString index="83">
            -36 -29 -27 -42 -43 vvcurveto
            -47 31 -26 57 vhcurveto
            19 57 -11 hlineto
            -22 -11 10 26 35 18 36 26 23 hvcurveto
            return
          </CharString>
          <CharString index="84">
            -74 callsubr
            -92 103 rmoveto
            231 callgsubr
            -114 -38 -49 -91 vhcurveto
            6 -344 15 callgsubr
            359 85 -726 -10 callgsubr
            endchar
          </CharString>
          <CharString index="85">
            rmoveto
            -91 38 -49 109 34 21 4 3 11 vhcurveto
            -121 98 575 return
          </CharString>
          <CharString index="86">
            -104 100 682 rmoveto
            -32 -103 rlineto
            -63 -93 58 -352 hlineto
            -88 41 -52 103 43 35 11 2 4 vhcurveto
            97 vlineto
            -2 -5 -26 -11 -32 hhcurveto
            -37 -17 16 36 hvcurveto
            343 109 93 -109 103 vlineto
            return
          </CharString>
          <CharString index="87">
            -58 129 -9 callgsubr
            vhcurveto
            109 callsubr
            return
          </CharString>
          <CharString index="88">
            5 -12 3 -27 -25 vvcurveto
            -106 vlineto
            -32 -8 -23 -50 -26 -20 4 3 -13 vhcurveto
            101 -97 -283 97 92 vlineto
            -6 25 20 -3 30 hhcurveto
            89 53 47 96 hvcurveto
            109 vlineto
            30 -3 21 -5 14 vhcurveto
            return
          </CharString>
          <CharString index="89">
            161 -54 callgsubr
            return
          </CharString>
          <CharString index="90">
            rmoveto
            -6 26 23 -3 36 82 callsubr
            100 575 89 85 -1170 -85 78 -323 hlineto
            -46 callsubr
            -118 99 402 vlineto
            5 16 23 1 17 hhcurveto
            51 11 -20 -36 hvcurveto
            -79 101 82 vlineto
            86 -44 55 -112 -19 -27 -2 -5 -17 vhcurveto
            86 583 -89 -285 -92 71 297 callsubr
            -31 -24 3 6 -27 vhcurveto
            -317 61 rmoveto
            21 callsubr
          </CharString>
          <CharString index="91">
            315 callsubr
            -21 -97 callgsubr
            16 24 47 23 21 103 callgsubr
            return
          </CharString>
          <CharString index="92">
            200 callgsubr
            100 hmoveto
            -58 callgsubr
          </CharString>
          <CharString index="93">
            rmoveto
            -33 -14 -25 -52 -52 -13 25 33 vhcurveto
            225 vlineto
            32 13 26 52 52 14 -26 -32 vhcurveto
            return
          </CharString>
          <CharString index="94">
            50 48 149 rmoveto
            -103 70 -51 123 92 44 22 19 34 vhcurveto
            314 -106 -243 vlineto
            -5 -9 -25 -10 -31 hhcurveto
            -59 -24 22 44 hvcurveto
            359 vlineto
            43 27 27 73 49 48 -9 -12 341 callsubr
            9 -27 -50 9 -53 hhcurveto
            -142 -66 -64 -95 hvcurveto
            return
          </CharString>
          <CharString index="95">
            20 32 vhcurveto
            return
          </CharString>
          <CharString index="96">
            98 vlineto
            -9 -32 -46 -6 -44 hhcurveto
            -71 -21 25 40 hvcurveto
            365 vlineto
            41 20 25 72 44 44 -7 -10 31 334 callgsubr
            -44 7 -47 hhcurveto
            -138 -62 -60 -95 hvcurveto
            return
          </CharString>
          <CharString index="97">
            100 vlineto
            -7 -23 -36 -9 -42 hhcurveto
            -66 -22 20 46 hvcurveto
            259 vlineto
            45 22 20 66 40 36 -8 -6 24 334 callgsubr
            -32 6 -54 hhcurveto
            -124 -57 -55 -103 hvcurveto
            return
          </CharString>
          <CharString index="98">
            52 41 5 9 39 vhcurveto
            -94 -72 callgsubr
            -189 -474 vlineto
            -10 -40 -37 -4 -49 hhcurveto
            -108 -37 33 81 hvcurveto
            endchar
          </CharString>
          <CharString index="99">
            vlineto
            33 12 22 51 vhcurveto
            43 92 121 callgsubr
            52 vlineto
            40 return
          </CharString>
          <CharString index="100">
            160 callgsubr
            -86 hvcurveto
            return
          </CharString>
          <CharString index="101">
            83 43 141 rmoveto
            -101 56 -60 162 68 80 10 10 38 vhcurveto
            86 vlineto
            -9 -48 -61 -9 -71 hhcurveto
            -102 -21 29 50 hvcurveto
            51 vlineto
            32 14 21 50 vhcurveto
            73 hlineto
            -95 -121 89 -7 88 114 rlineto
            6 -8 2 -13 -16 vvcurveto
            -34 91 42 vlineto
            84 -37 36 -96 vhcurveto
            -128 hlineto
            -43 -14 15 29 hvcurveto
            9 vlineto
            29 13 15 43 vhcurveto
            201 150 122 85 -555 -85 333 -66 -101 hlineto
            -106 -50 -33 -88 hvcurveto
            -10 vlineto
            1 -45 16 -31 31 -16 rrcurveto
            -32 -17 -17 -27 -47 vvcurveto
            return
          </CharString>
          <CharString index="102">
            -114 -38 -49 -91 hvcurveto
            -103 vlineto
            -96 38 -44 114 return
          </CharString>
          <CharString index="103">
            rmoveto
            41 21 25 55 vhcurveto
            123 170 90 85 return
          </CharString>
          <CharString index="104">
            rmoveto
            50 27 34 42 42 -27 33 -50 -49 -28 -33 -42 -42 28 -34 49 hvcurveto
            43 vmoveto
            -20 -12 13 20 19 12 13 20 20 12 -13 -19 -20 -12 -13 -20 hvcurveto
            endchar
          </CharString>
          <CharString index="105">
            -106 -50 -37 -87 hvcurveto
            -16 vlineto
            1 -45 16 -28 31 -16 rrcurveto
            -32 -18 -17 -31 -47 vvcurveto
            return
          </CharString>
          <CharString index="106">
            -13 -25 -33 -32 13 -25 return
          </CharString>
          <CharString index="107">
            109 109 45 return
          </CharString>
          <CharString index="108">
            rmoveto
            -32 -9 -20 return
          </CharString>
          <CharString index="109">
            rmoveto
            -5 90 8 vlineto
            86 -38 55 -113 -28 -24 -3 -5 -22 vhcurveto
            78 230 85 -631 -85 303 -403 vlineto
            -3 -8 -22 -6 -27 hhcurveto
            -50 -13 22 34 hvcurveto
            142 4 callsubr
            -134 vlineto
            -74 31 -45 67 -13 vhcurveto
            -117 -143 rlineto
            115 hlineto
            115 146 rlineto
            2 2 1 1 hhcurveto
            -102 98 410 vlineto
            5 19 24 2 24 hhcurveto
            51 17 -20 -36 hvcurveto
            endchar
          </CharString>
          <CharString index="110">
            107 hlineto
            91 -47 53 -107 -107 136 callsubr
            -4 313 callsubr
            -104 172 callgsubr
            -85 vlineto
            -86 45 147 callgsubr
            135 return
          </CharString>
          <CharString index="111">
            -36 callgsubr
            -102 -46 -49 -92 hvcurveto
            return
          </CharString>
          <CharString index="112">
            19 -12 callgsubr
            return
          </CharString>
          <CharString index="113">
            28 callsubr
            -17 4 -22 182 callgsubr
            return
          </CharString>
          <CharString index="114">
            88 vmoveto
            21 callsubr
          </CharString>
          <CharString index="115">
            -58 hlineto
            -139 -76 -58 -105 hvcurveto
            -8 101 vlineto
            58 41 21 80 vhcurveto
            40 hlineto
            109 34 -34 -77 hvcurveto
            -27 -90 -85 90 -88 callsubr
            -90 return
          </CharString>
          <CharString index="116">
            93 callgsubr
            -108 61 -45 157 227 callgsubr
            vhcurveto
            return
          </CharString>
          <CharString index="117">
            rmoveto
            -33 -1 -18 -22 -33 hhcurveto
            -33 -18 22 33 -1 hvcurveto
            -63 hlineto
            -65 1 45 -46 69 hhcurveto
            68 46 46 65 1 hvcurveto
            return
          </CharString>
          <CharString index="118">
            rmoveto
            62 callsubr
            return
          </CharString>
          <CharString index="119">
            429 682 rmoveto
            -294 -682 rlineto
            75 hlineto
            295 682 rlineto
            -344 -233 rmoveto
            -36 -13 31 53 53 13 31 36 35 13 -30 -54 -53 -13 -31 -35 hvcurveto
            -73 vmoveto
            90 37 64 93 93 -37 63 -90 -90 -36 -63 -93 -93 36 -64 90 hvcurveto
            316 -312 rmoveto
            -35 -13 32 53 53 13 31 35 36 12 -31 -53 -53 -12 -32 -36 hvcurveto
            1 -72 rmoveto
            90 36 64 93 93 -36 63 -90 -90 -37 -63 -93 -93 37 -64 90 hvcurveto
            return
          </CharString>
          <CharString index="120">
            hmoveto
            -86 callgsubr
            return
          </CharString>
          <CharString index="121">
            rmoveto
            -422 vlineto
            -107 callsubr
            return
          </CharString>
          <CharString index="122">
            hhcurveto
            -9 callgsubr
            hvcurveto
            -16 callsubr
            return
          </CharString>
          <CharString index="123">
            32 callsubr
            49 8 -23 -33 vhcurveto
            return
          </CharString>
          <CharString index="124">
            -49 -8 21 31 vhcurveto
            81 30 callgsubr
            return
          </CharString>
          <CharString index="125">
            hvcurveto
            -280 -85 282 -71 -59 hlineto
            -106 -51 -39 -92 hvcurveto
            -8 vlineto
            -91 54 -39 103 vhcurveto
            24 hlineto
            51 12 -23 -30 hvcurveto
            -28 vlineto
            -34 -19 -19 -52 -28 -26 5 2 -12 vhcurveto
            62 -98 -243 98 92 vlineto
            -2 11 31 -6 36 hhcurveto
            116 43 48 93 hvcurveto
            33 vlineto
            91 -52 44 -111 vhcurveto
            -24 hlineto
            -44 -13 17 30 hvcurveto
            3 vlineto
            30 12 17 45 vhcurveto
            159 158 89 85 hlineto
            endchar
          </CharString>
          <CharString index="126">
            -105 callsubr
            -105 134 rmoveto
            206 callgsubr
            return
          </CharString>
          <CharString index="127">
            rmoveto
            35 23 -6 -6 16 307 callsubr
            -150 131 rlineto
            21 10 23 13 43 hhcurveto
            -275 vmoveto
            -62 -21 28 40 hvcurveto
            106 vlineto
            157 -139 rlineto
            -26 vlineto
            -3 -16 -22 -6 -36 hhcurveto
            endchar
          </CharString>
          <CharString index="128">
            -83 callgsubr
            endchar
          </CharString>
          <CharString index="129">
            372 575 rmoveto
            230 85 -634 -85 84 -259 hlineto
            -77 32 -48 74 -14 vhcurveto
            -129 -187 rlineto
            112 hlineto
            131 191 rlineto
            1 -181 99 405 hlineto
            35 callsubr
            -222 rmoveto
            -3 -10 -19 -3 -23 hhcurveto
            -53 -16 24 32 hvcurveto
            256 121 vlineto
            return
          </CharString>
          <CharString index="130">
            -126 93 -51 121 40 35 4 6 return
          </CharString>
          <CharString index="131">
            40 48 158 rmoveto
            -98 52 -70 128 128 53 70 98 vhcurveto
            128 vlineto
            96 -57 55 -101 -46 -27 -6 -10 -22 vhcurveto
            84 vlineto
            44 22 38 71 55 43 -9 -13 33 vhcurveto
            102 vlineto
            9 -23 -46 11 -64 hhcurveto
            -146 -53 -77 -95 hvcurveto
            253 -355 rmoveto
            -45 -16 -30 -57 -57 -15 31 44 vhcurveto
            167 vlineto
            7 12 30 9 34 hhcurveto
            45 24 -18 -48 hvcurveto
            endchar
          </CharString>
          <CharString index="132">
            rmoveto
            67 -111 rlineto
            61 hlineto
            -41 216 callgsubr
          </CharString>
          <CharString index="133">
            -107 275 582 rmoveto
            -51 -21 -17 -28 -42 hvcurveto
            42 -103 -579 108 447 vlineto
            21 33 27 12 42 hhcurveto
            28 102 hlineto
            return
          </CharString>
          <CharString index="134">
            hlineto
            43 -22 -44 20 -64 hhcurveto
            -180 hlineto
            -17 callgsubr
            -122 45 callgsubr
            109 vlineto
            32 -8 28 -1 4 vhcurveto
            44 hlineto
            40 17 -17 -36 hvcurveto
            return
          </CharString>
          <CharString index="135">
            24 19 vlineto
            122 55 49 103 hvcurveto
            57 vlineto
            94 -38 52 -103 -102 -40 -55 -94 return
          </CharString>
          <CharString index="136">
            hhcurveto
            40 36 248 callgsubr
            return
          </CharString>
          <CharString index="137">
            -4 callsubr
            -467 -85 277 -79 -33 hlineto
            272 callsubr
            return
          </CharString>
          <CharString index="138">
            96 callsubr
            119 43 33 6 6 28 vhcurveto
            -72 100 575 89 vlineto
            -189 hmoveto
            -413 vlineto
            -7 -23 -34 -5 -35 hhcurveto
            -62 11 callgsubr
            endchar
          </CharString>
          <CharString index="139">
            hhcurveto
            -73 -14 33 45 hvcurveto
            168 vlineto
            32 9 24 49 48 18 callgsubr
            10 23 44 return
          </CharString>
          <CharString index="140">
            -67 24 579 rmoveto
            -92 179 vlineto
            -183 -415 rlineto
            -72 300 92 -184 vlineto
            183 416 rlineto
            71 vlineto
            return
          </CharString>
          <CharString index="141">
            -51 rmoveto
            -4 120 vlineto
            100 93 51 54 30 52 13 28 rlinecurve
            100 vlineto
            -7 388 rmoveto
            -502 -85 502 hlineto
            -89 vmoveto
            -376 -92 105 hlineto
            0 9 -19 -39 vvcurveto
            -76 vlineto
            -43 -25 -22 -53 -34 -25 4 6 -28 vhcurveto
            -91 vlineto
            -7 27 23 65 callgsubr
            64 53 101 hvcurveto
            84 46 callsubr
            170 hlineto
            return
          </CharString>
          <CharString index="142">
            5 19 28 2 24 hhcurveto
            52 16 -20 -37 hvcurveto
            -4 91 7 318 callsubr
            -28 -29 -2 -6 -22 vhcurveto
            -99 return
          </CharString>
          <CharString index="143">
            -6 callgsubr
            -34 -101 callgsubr
            return
          </CharString>
          <CharString index="144">
            -31 108 callgsubr
            122 callgsubr
            return
          </CharString>
          <CharString index="145">
            35 50 callsubr
            return
          </CharString>
          <CharString index="146">
            3 -13 -31 7 -36 hhcurveto
            return
          </CharString>
          <CharString index="147">
            hhcurveto
            -53 -30 108 callgsubr
            -61 callgsubr
            -174 vlineto
            -109 54 -58 129 17 38 1 1 9 vhcurveto
            91 vlineto
            -1 -11 -35 0 -13 16 callsubr
            return
          </CharString>
          <CharString index="148">
            -85 767 -82 -288 -92 73 281 callsubr
            -130 vlineto
            -43 -26 -22 -53 -21 -27 5 6 -23 vhcurveto
            5 16 2 19 21 vvcurveto
            139 vlineto
            100 -53 53 -120 -128 44 callsubr
            122 40 32 6 11 26 vhcurveto
            -11 34 57 -12 51 hhcurveto
            113 63 52 101 hvcurveto
            return
          </CharString>
          <CharString index="149">
            rmoveto
            73 vlineto
            42 13 28 70 69 13 -28 -42 vhcurveto
            -73 vlineto
            -42 -14 -28 -68 -70 -13 28 42 vhcurveto
            165 287 rmoveto
            -1 vlineto
            -159 167 rlineto
            159 hlineto
            return
          </CharString>
          <CharString index="150">
            -106 63 -42 111 37 28 6 4 14 vhcurveto
            -72 95 -72 callsubr
            return
          </CharString>
          <CharString index="151">
            -48 83 callsubr
            54 -55 return
          </CharString>
          <CharString index="152">
            -30 callsubr
            67 85 -450 65 callsubr
            return
          </CharString>
          <CharString index="153">
            vlineto
            103 callsubr
            return
          </CharString>
          <CharString index="154">
            rmoveto
            123 callsubr
            -183 hmoveto
            123 callsubr
            endchar
          </CharString>
          <CharString index="155">
            7 12 1 1 7 hvcurveto
            93 vlineto
            -51 -1 -18 16 38 vvcurveto
            return
          </CharString>
          <CharString index="156">
            -408 -163 -265 rmoveto
            6 8 31 4 hhcurveto
            16 -5 -37 -20 -9 vhcurveto
            91 95 rmoveto
            5 4 2 4 5 hvcurveto
            27 -2 -11 19 -43 hhcurveto
            -42 -12 -20 -27 -2 hvcurveto
            31 18 -32 -13 6 hvcurveto
            11 9 15 24 vhcurveto
            3 1 0 1 hhcurveto
            6 -7 9 -8 4 -10 rrcurveto
            -15 73 vlineto
            -61 -15 -31 return
          </CharString>
          <CharString index="157">
            -18 vhcurveto
            40 callgsubr
            return
          </CharString>
          <CharString index="158">
            rlineto
            13 hlineto
            28 14 -10 -21 -19 -17 -11 -25 -14 -16 3 4 -8 hvcurveto
            -53 vlineto
            -4 16 18 -2 17 hhcurveto
            55 39 29 51 45 -34 20 -29 2 hvcurveto
            return
          </CharString>
          <CharString index="159">
            rmoveto
            -32 -9 -20 -48 17 callsubr
            return
          </CharString>
          <CharString index="160">
            -31 callsubr
            -58 vlineto
            return
          </CharString>
          <CharString index="161">
            rmoveto
            6 25 30 6 48 hhcurveto
            40 11 -15 -28 hvcurveto
            -23 vlineto
            -30 -2 -15 -27 -19 vhcurveto
            -72 -50 rlineto
            -45 -30 -19 -24 -58 vvcurveto
            -98 237 66 -165 29 vlineto
            35 4 6 43 30 vhcurveto
            66 48 rlineto
            37 26 15 28 46 vvcurveto
            35 vlineto
            68 -38 38 -83 -57 -35 -7 -3 -13 vhcurveto
            endchar
          </CharString>
          <CharString index="162">
            -75 31 -44 68 -14 vhcurveto
            -118 -143 rlineto
            115 hlineto
            115 147 rlineto
            2 2 1 1 hhcurveto
            return
          </CharString>
          <CharString index="163">
            218 211 rmoveto
            -54 -18 22 34 hvcurveto
            308 return
          </CharString>
          <CharString index="164">
            hhcurveto
            -52 -28 19 42 hvcurveto
            119 vlineto
            138 callsubr
            -258 -90 73 257 callgsubr
            63 -50 108 return
          </CharString>
          <CharString index="165">
            -38 67 callgsubr
            return
          </CharString>
          <CharString index="166">
            rmoveto
            44 188 callsubr
            44 hvcurveto
            return
          </CharString>
          <CharString index="167">
            227 callsubr
            -109 -47 -54 -91 hvcurveto
            -155 vlineto
            return
          </CharString>
          <CharString index="168">
            125 callsubr
            109 682 vlineto
            return
          </CharString>
          <CharString index="169">
            37 -7 22 0 vhcurveto
            return
          </CharString>
          <CharString index="170">
            91 vlineto
            -8 -35 -52 -7 -58 hhcurveto
            -64 -35 20 52 hvcurveto
            67 318 callgsubr
            48 hlineto
            110 40 54 71 hvcurveto
            185 82 85 -529 -85 vlineto
            252 -233 rmoveto
            -50 -15 23 33 hvcurveto
            100 vlineto
            140 -145 rlineto
            -7 -9 -13 -4 -18 hhcurveto
            endchar
          </CharString>
          <CharString index="171">
            49 47 26 31 72 vvcurveto
            33 100 callgsubr
            -33 vlineto
            -75 88 callgsubr
            return
          </CharString>
          <CharString index="172">
            -85 283 hlineto
            -105 callgsubr
            -58 callsubr
            return
          </CharString>
          <CharString index="173">
            vlineto
            155 callgsubr
          </CharString>
          <CharString index="174">
            287 733 rmoveto
            -154 -70 vlineto
            -110 -59 -62 -102 hvcurveto
            -279 vlineto
            -88 45 -52 90 59 33 26 15 16 vhcurveto
            -37 105 733 vlineto
            -108 -614 rmoveto
            -12 -14 -28 -12 -34 hhcurveto
            -38 -18 19 37 hvcurveto
            261 vlineto
            47 26 23 47 vhcurveto
            59 hlineto
            return
          </CharString>
          <CharString index="175">
            -20 -39 vvcurveto
            -55 -4 callgsubr
            return
          </CharString>
          <CharString index="176">
            -4 146 339 30 callsubr
            97 callsubr
            return
          </CharString>
          <CharString index="177">
            43 131 callgsubr
            -43 return
          </CharString>
          <CharString index="178">
            9 callsubr
            187 vlineto
            return
          </CharString>
          <CharString index="179">
            54 141 195 callsubr
            -14 -25 -33 -32 14 -25 44 hvcurveto
            return
          </CharString>
          <CharString index="180">
            235 rmoveto
            50 14 -22 -33 hvcurveto
            -30 vlineto
            -33 -16 -22 -52 -25 -25 4 3 -13 vhcurveto
            61 -98 -233 98 173 callgsubr
            99 52 37 99 hvcurveto
            35 vlineto
            26 -7 22 -14 13 vhcurveto
            114 -240 -72 callgsubr
            return
          </CharString>
          <CharString index="181">
            129 callsubr
            12 vhcurveto
            return
          </CharString>
          <CharString index="182">
            -85 267 hlineto
            0 12 -18 -40 vvcurveto
            -78 vlineto
            -32 -7 -26 -54 -1 vhcurveto
            -66 -92 61 hlineto
            55 11 -29 -35 hvcurveto
            -73 vlineto
            -44 -30 -20 -61 -40 -37 7 9 -35 vhcurveto
            -93 vlineto
            -9 40 33 -5 40 hhcurveto
            128 62 52 101 hvcurveto
            endchar
          </CharString>
          <CharString index="183">
            -126 92 -51 121 return
          </CharString>
          <CharString index="184">
            8 20 -12 callgsubr
            return
          </CharString>
          <CharString index="185">
            130 -170 vlineto
            -34 -9 -18 -40 vhcurveto
            -13 -92 hlineto
            -1 7 8 -1 6 hhcurveto
            106 35 55 86 hvcurveto
            175 80 85 return
          </CharString>
          <CharString index="186">
            0 8 53 callsubr
            -55 -24 -13 -76 vhcurveto
            -22 return
          </CharString>
          <CharString index="187">
            hlineto
            81 callsubr
            return
          </CharString>
          <CharString index="188">
            93 -49 59 -129 -38 -26 -6 -8 -23 vhcurveto
            -90 vlineto
            8 24 26 5 36 hhcurveto
            62 17 -27 -41 hvcurveto
            -148 vlineto
            -40 130 callgsubr
            -8 40 hhcurveto
            129 49 58 94 hvcurveto
            return
          </CharString>
          <CharString index="189">
            98 callsubr
            -400 return
          </CharString>
          <CharString index="190">
            -55 -98 267 callsubr
            -97 return
          </CharString>
          <CharString index="191">
            -60 -120 rcurveline
            104 hlineto
            52 115 rlineto
            4 4 1 4 hhcurveto
            52 -116 rlineto
            104 hlineto
            -68 135 rlineto
            50 return
          </CharString>
          <CharString index="192">
            105 callsubr
            -67 137 200 21 callgsubr
            return
          </CharString>
          <CharString index="193">
            348 callgsubr
            -86 -241 15 callgsubr
            return
          </CharString>
          <CharString index="194">
            -29 7 682 rmoveto
            -95 128 -587 109 587 128 95 vlineto
            return
          </CharString>
          <CharString index="195">
            vhcurveto
            -384 -93 callgsubr
            return
          </CharString>
          <CharString index="196">
            rmoveto
            -124 hlineto
            61 316 rlineto
            return
          </CharString>
          <CharString index="197">
            hhcurveto
            -52 -18 22 35 hvcurveto
            return
          </CharString>
          <CharString index="198">
            rlineto
            59 -39 -25 17 107 callgsubr
            -84 vlineto
            347 callsubr
            return
          </CharString>
          <CharString index="199">
            379 -74 callsubr
            return
          </CharString>
          <CharString index="200">
            90 callgsubr
            31 return
          </CharString>
          <CharString index="201">
            35 332 682 rmoveto
            -50 -146 -28 -85 -16 -57 -15 -56 rlinecurve
            -14 56 -16 56 -28 86 -52 146 rcurveline
            -111 hlineto
            165 -461 rlineto
            -221 109 221 vlineto
            165 461 rlineto
            return
          </CharString>
          <CharString index="202">
            rmoveto
            -62 -21 27 40 hvcurveto
            90 vlineto
            156 -138 rlineto
            -10 vlineto
            -4 -15 -22 -5 -36 hhcurveto
            259 vmoveto
            35 23 -6 -6 15 hvcurveto
            -152 vlineto
            -149 130 rlineto
            21 10 23 13 43 hhcurveto
            endchar
          </CharString>
          <CharString index="203">
            123 callgsubr
            -57 -4 callgsubr
            -51 vlineto
            -97 67 -56 return
          </CharString>
          <CharString index="204">
            211 callgsubr
            212 callgsubr
            vhcurveto
            -20 callgsubr
            return
          </CharString>
          <CharString index="205">
            118 callgsubr
            113 return
          </CharString>
          <CharString index="206">
            vlineto
            75 callgsubr
            return
          </CharString>
          <CharString index="207">
            -85 77 -311 vlineto
            241 callgsubr
            return
          </CharString>
          <CharString index="208">
            rmoveto
            107 callsubr
            return
          </CharString>
          <CharString index="209">
            -70 128 128 60 70 98 vhcurveto
            return
          </CharString>
          <CharString index="210">
            38 -9 21 0 vhcurveto
            return
          </CharString>
          <CharString index="211">
            rmoveto
            -61 243 61 vlineto
            endchar
          </CharString>
          <CharString index="212">
            -99 callgsubr
            163 86 rmoveto
            return
          </CharString>
          <CharString index="213">
            rmoveto
            -2 -7 -23 -5 -29 hhcurveto
            -50 return
          </CharString>
          <CharString index="214">
            44 13 314 callgsubr
            return
          </CharString>
          <CharString index="215">
            -151 448 rmoveto
            151 -211 hlineto
            -151 137 rlineto
            74 -297 rmoveto
            -52 -22 23 33 hvcurveto
            162 vlineto
            151 -136 rlineto
            -69 vlineto
            -7 -23 -20 -6 -34 hhcurveto
            endchar
          </CharString>
          <CharString index="216">
            91 vlineto
            -2 -16 return
          </CharString>
          <CharString index="217">
            373 660 rmoveto
            -405 -85 405 hlineto
            -141 -214 rmoveto
            3 -6 7 -18 -35 vvcurveto
            -103 vlineto
            -32 -11 -20 -43 -43 -11 -12 callsubr
            110 -68 callgsubr
            return
          </CharString>
          <CharString index="218">
            24 427 122 rmoveto
            95 -66 465 -148 vlineto
            -203 -461 rlineto
            -99 248 -122 103 122 vlineto
            -256 95 rmoveto
            156 359 rlineto
            -359 vlineto
            endchar
          </CharString>
          <CharString index="219">
            -2 -9 -21 -6 return
          </CharString>
          <CharString index="220">
            -126 69 -50 134 59 37 5 8 38 vhcurveto
            90 vlineto
            -7 -40 -34 -5 -60 hhcurveto
            -68 -37 24 62 hvcurveto
            113 vlineto
            -5 19 28 -3 23 hhcurveto
            50 38 16 30 19 hvcurveto
            return
          </CharString>
          <CharString index="221">
            -85 271 vlineto
            -43 callsubr
            return
          </CharString>
          <CharString index="222">
            40 callgsubr
            -22 vlineto
            -88 54 -54 99 -9 vhcurveto
            -141 -146 rlineto
            129 hlineto
            149 156 rlineto
            1 -107 -72 callgsubr
            -189 hlineto
            endchar
          </CharString>
          <CharString index="223">
            -52 5 682 rmoveto
            -100 212 vlineto
            -65 -206 rlineto
            -27 -81 -19 -83 -103 vvcurveto
            -109 110 101 vlineto
            104 17 73 27 83 vhcurveto
            76 234 rlineto
            87 vlineto
            endchar
          </CharString>
          <CharString index="224">
            -6 callgsubr
            -34 -10 -54 hhcurveto
            -68 -35 -50 callsubr
            18 20 -3 24 hhcurveto
            return
          </CharString>
          <CharString index="225">
            1 8 9 1 9 hhcurveto
            30 249 callsubr
            return
          </CharString>
          <CharString index="226">
            -76 -54 181 callsubr
            return
          </CharString>
          <CharString index="227">
            1 9 9 1 8 hhcurveto
            31 return
          </CharString>
          <CharString index="228">
            29 51 hvcurveto
            84 vlineto
            -4 return
          </CharString>
          <CharString index="229">
            -122 -53 -65 -93 return
          </CharString>
          <CharString index="230">
            -44 -111 rlineto
            55 hlineto
            70 111 rlineto
            return
          </CharString>
          <CharString index="231">
            20 -13 -28 21 hvcurveto
            74 -104 rlineto
            return
          </CharString>
          <CharString index="232">
            -184 0 callgsubr
            return
          </CharString>
          <CharString index="233">
            133 callsubr
            122 return
          </CharString>
          <CharString index="234">
            198 callsubr
            -46 298 callsubr
            return
          </CharString>
          <CharString index="235">
            9 284 579 rmoveto
            -105 -273 111 -306 rlineto
            116 hlineto
            -119 303 107 276 rlineto
            -336 154 rmoveto
            -733 105 733 vlineto
            return
          </CharString>
          <CharString index="236">
            274 callsubr
            52 31 26 -6 -3 return
          </CharString>
          <CharString index="237">
            -60 callgsubr
            1 callgsubr
            -25 -31 -4 return
          </CharString>
          <CharString index="238">
            -38 rmoveto
            -54 -12 23 35 hvcurveto
            48 vlineto
            33 18 19 43 2 vhcurveto
            2 1 0 1 hhcurveto
            27 1 25 5 15 6 rrcurveto
            -114 vlineto
            -35 -12 -23 -54 vhcurveto
            return
          </CharString>
          <CharString index="239">
            -92 105 hlineto
            221 callsubr
            -34 -25 4 7 -28 vhcurveto
            -91 vlineto
            -7 27 23 65 callgsubr
            64 52 102 hvcurveto
            return
          </CharString>
          <CharString index="240">
            vlineto
            -158 126 -74 callgsubr
            return
          </CharString>
          <CharString index="241">
            rmoveto
            -63 150 callsubr
            159 -129 rlineto
            -27 -8 -23 -15 -46 hhcurveto
            return
          </CharString>
          <CharString index="242">
            196 634 -196 hlineto
            236 -185 rmoveto
            196 185 -196 hlineto
            return
          </CharString>
          <CharString index="243">
            -47 -53 -91 -22 4 -23 183 callsubr
            return
          </CharString>
          <CharString index="244">
            0 0 callgsubr
            return
          </CharString>
          <CharString index="245">
            164 callsubr
            86 return
          </CharString>
          <CharString index="246">
            93 vlineto
            -9 -27 -37 -5 -32 -102 callgsubr
            return
          </CharString>
          <CharString index="247">
            11 -24 -31 vhcurveto
            return
          </CharString>
          <CharString index="248">
            58 315 575 rmoveto
            -157 vlineto
            -153 157 rlineto
            -107 hmoveto
            -177 vlineto
            -43 14 -30 26 -20 vhcurveto
            -25 -19 -15 -30 -44 vvcurveto
            -68 vlineto
            return
          </CharString>
          <CharString index="249">
            174 callgsubr
            -61 23 -44 47 -23 vhcurveto
            return
          </CharString>
          <CharString index="250">
            803 rmoveto
            178 callgsubr
            return
          </CharString>
          <CharString index="251">
            vlineto
            43 callsubr
            return
          </CharString>
          <CharString index="252">
            hhcurveto
            37 30 7 3 13 hvcurveto
            314 callsubr
            return
          </CharString>
          <CharString index="253">
            vlineto
            -91 47 -46 101 32 -36 callsubr
            98 return
          </CharString>
          <CharString index="254">
            77 callgsubr
            56 85 return
          </CharString>
          <CharString index="255">
            -85 vlineto
            3 -12 -28 7 -43 hhcurveto
            return
          </CharString>
          <CharString index="256">
            vhcurveto
            211 callsubr
            return
          </CharString>
          <CharString index="257">
            -19 26 46 hvcurveto
            99 vlineto
            return
          </CharString>
          <CharString index="258">
            rlineto
            25 9 22 13 45 hhcurveto
            20 15 -3 0 hvcurveto
            84 vlineto
            0 -19 4 -23 -123 -47 83 callsubr
            53 -55 123 return
          </CharString>
          <CharString index="259">
            270 callgsubr
            18 17 -1 -1 16 333 callsubr
            -167 vlineto
            -91 return
          </CharString>
          <CharString index="260">
            30 -23 -37 17 -51 hhcurveto
            -107 -44 -51 -92 -1 hvcurveto
            -208 vlineto
            -91 45 -54 106 51 38 17 30 23 vhcurveto
            -30 23 37 -17 51 hhcurveto
            return
          </CharString>
          <CharString index="261">
            -9 vlineto
            -91 54 -39 102 vhcurveto
            85 vmoveto
            -44 -12 17 30 hvcurveto
            4 vlineto
            30 13 16 44 vhcurveto
            160 158 103 -255 hlineto
            endchar
          </CharString>
          <CharString index="262">
            43 12 24 31 31 -12 23 -43 -42 -12 -23 -31 -31 12 -24 42 hvcurveto
            return
          </CharString>
          <CharString index="263">
            hlineto
            167 callgsubr
            return
          </CharString>
          <CharString index="264">
            224 callgsubr
            102 vlineto
            endchar
          </CharString>
          <CharString index="265">
            rmoveto
            39 callsubr
            return
          </CharString>
          <CharString index="266">
            -18 168 callgsubr
            return
          </CharString>
          <CharString index="267">
            -405 rmoveto
            -58 callsubr
            57 39 15 29 24 hvcurveto
            return
          </CharString>
          <CharString index="268">
            -79 268 callgsubr
            -93 vlineto
            -4 -19 -16 -3 -26 310 callgsubr
            51 vhcurveto
            155 168 return
          </CharString>
          <CharString index="269">
            vlineto
            -46 callsubr
            return
          </CharString>
          <CharString index="270">
            vlineto
            -85 45 -45 callsubr
            return
          </CharString>
          <CharString index="271">
            184 callgsubr
            82 return
          </CharString>
          <CharString index="272">
            -22 22 39 hvcurveto
            return
          </CharString>
          <CharString index="273">
            -188 43 callgsubr
          </CharString>
          <CharString index="274">
            516 130 callsubr
            return
          </CharString>
          <CharString index="275">
            -85 267 -112 -55 hlineto
            -110 -44 -50 -85 hvcurveto
            -61 vlineto
            -85 44 -53 109 109 43 54 85 vhcurveto
            110 return
          </CharString>
          <CharString index="276">
            -107 callgsubr
            endchar
          </CharString>
          <CharString index="277">
            2 -6 8 -26 -35 vvcurveto
            -127 vlineto
            -32 -11 -20 -43 -43 -11 -12 callsubr
            142 -68 callgsubr
            endchar
          </CharString>
          <CharString index="278">
            58 29 vvcurveto
            19 -11 215 callsubr
          </CharString>
          <CharString index="279">
            vlineto
            62 callgsubr
            return
          </CharString>
          <CharString index="280">
            19 42 hvcurveto
            119 vlineto
            138 callsubr
            -259 -90 74 257 callgsubr
            return
          </CharString>
          <CharString index="281">
            94 vlineto
            -12 -34 -31 callgsubr
            return
          </CharString>
          <CharString index="282">
            vvcurveto
            -97 -1 -14 callsubr
            endchar
          </CharString>
          <CharString index="283">
            496 158 callsubr
            -39 306 callsubr
            return
          </CharString>
          <CharString index="284">
            -41 0 callgsubr
            335 callsubr
            590 vlineto
            return
          </CharString>
          <CharString index="285">
            -3 13 29 -4 36 hhcurveto
            100 51 37 98 hvcurveto
            return
          </CharString>
          <CharString index="286">
            22 -49 hhcurveto
            -11 -10 -1 -1 -10 hvcurveto
            return
          </CharString>
          <CharString index="287">
            0 9 -70 callgsubr
            return
          </CharString>
          <CharString index="288">
            hlineto
            229 callsubr
            return
          </CharString>
          <CharString index="289">
            -96 -72 callgsubr
            return
          </CharString>
          <CharString index="290">
            0 263 callgsubr
            return
          </CharString>
          <CharString index="291">
            134 vlineto
            39 return
          </CharString>
          <CharString index="292">
            12 12 69 callgsubr
            -98 -57 vlineto
            -36 -29 -5 -10 -22 hvcurveto
            31 -24 -41 15 return
          </CharString>
          <CharString index="293">
            41 -17 27 -62 -36 -26 -5 -8 -24 vhcurveto
            90 vlineto
            8 23 26 6 38 hhcurveto
            129 49 -59 -93 hvcurveto
            -38 return
          </CharString>
          <CharString index="294">
            -227 68 723 rmoveto
            -41 -223 rlineto
            51 hlineto
            23 37 53 94 47 vvcurveto
            29 -15 16 -32 vhcurveto
            endchar
          </CharString>
          <CharString index="295">
            14 158 callgsubr
            -14 -25 -32 -33 13 -25 return
          </CharString>
          <CharString index="296">
            -418 vlineto
            -7 -21 -19 -3 -26 hhcurveto
            336 callgsubr
            return
          </CharString>
          <CharString index="297">
            134 rmoveto
            0 return
          </CharString>
          <CharString index="298">
            vlineto
            80 -39 45 -79 12 vhcurveto
            73 204 85 -510 -85 206 -73 vlineto
            -79 -12 -39 -46 -80 vvcurveto
            return
          </CharString>
          <CharString index="299">
            rmoveto
            188 callgsubr
            305 callgsubr
            vhcurveto
            32 vlineto
            98 return
          </CharString>
          <CharString index="300">
            -39 hhcurveto
            -103 -43 -57 -92 307 callsubr
            -96 54 -63 120 120 55 64 96 vhcurveto
            155 vlineto
            return
          </CharString>
          <CharString index="301">
            vlineto
            35 16 23 55 55 16 -23 -35 vhcurveto
            return
          </CharString>
          <CharString index="302">
            101 callsubr
            -44 return
          </CharString>
          <CharString index="303">
            -50 callgsubr
            -9 -12 callsubr
            return
          </CharString>
          <CharString index="304">
            -23 -7 -31 hhcurveto
            -52 -16 return
          </CharString>
          <CharString index="305">
            hlineto
            123 callgsubr
            return
          </CharString>
          <CharString index="306">
            vlineto
            242 callsubr
            return
          </CharString>
          <CharString index="307">
            4 -37 hhcurveto
            -115 -67 -54 -103 hvcurveto
            -201 vlineto
            -90 37 -51 107 1 vhcurveto
            2 23 1 0 hvcurveto
            return
          </CharString>
          <CharString index="308">
            215 146 rmoveto
            -62 -19 26 46 hvcurveto
            98 vlineto
            158 -128 rlineto
            -28 -8 -23 -14 -46 hhcurveto
            return
          </CharString>
          <CharString index="309">
            349 callgsubr
            -140 vlineto
            -32 -12 -23 -50 -26 -25 5 4 -11 vhcurveto
            return
          </CharString>
          <CharString index="310">
            -18 -35 vvcurveto
            -51 vlineto
            -32 -11 -20 -43 -43 -11 -12 callsubr
            58 -68 callgsubr
            endchar
          </CharString>
          <CharString index="311">
            vlineto
            -54 52 rmoveto
            16 callgsubr
          </CharString>
          <CharString index="312">
            -85 45 336 callsubr
            315 callgsubr
            return
          </CharString>
          <CharString index="313">
            187 vlineto
            64 -17 43 -47 199 callgsubr
            return
          </CharString>
          <CharString index="314">
            77 579 rmoveto
            -57 -88 57 -491 109 491 return
          </CharString>
          <CharString index="315">
            rmoveto
            311 callsubr
            return
          </CharString>
          <CharString index="316">
            -79 vlineto
            39 callsubr
            return
          </CharString>
          <CharString index="317">
            -57 hlineto
            -7 callsubr
            return
          </CharString>
          <CharString index="318">
            -399 100 575 return
          </CharString>
          <CharString index="319">
            -105 -52 -39 -91 hvcurveto
            return
          </CharString>
          <CharString index="320">
            vlineto
            -38 -16 -11 -51 vhcurveto
            -55 -72 322 callsubr
            31 vhcurveto
            -62 return
          </CharString>
          <CharString index="321">
            vhcurveto
            29 hlineto
            46 14 -14 -29 hvcurveto
            -11 vlineto
            -42 -29 -9 -61 -49 -77 8 11 -47 vhcurveto
            endchar
          </CharString>
          <CharString index="322">
            10 -20 vhcurveto
            endchar
          </CharString>
          <CharString index="323">
            hvcurveto
            -155 vlineto
            -93 45 -52 111 306 callgsubr
            vhcurveto
            -71 -93 callgsubr
            return
          </CharString>
          <CharString index="324">
            42 -125 rmoveto
            44 14 25 32 33 -14 322 callgsubr
            return
          </CharString>
          <CharString index="325">
            -7 -2 -9 -12 vvcurveto
            -40 -20 -55 -31 -60 25 -47 66 hvcurveto
            12 -29 36 -12 43 4 rrcurveto
            return
          </CharString>
          <CharString index="326">
            hvcurveto
            12 vlineto
            93 -53 34 -110 vhcurveto
            -31 hlineto
            -41 return
          </CharString>
          <CharString index="327">
            -366 -682 rlineto
            73 hlineto
            366 682 rlineto
            return
          </CharString>
          <CharString index="328">
            0 9 273 callsubr
            -53 return
          </CharString>
          <CharString index="329">
            21 0 259 callgsubr
            return
          </CharString>
          <CharString index="330">
            320 callgsubr
            -17 callgsubr
            return
          </CharString>
          <CharString index="331">
            -90 -243 hlineto
            -17 callgsubr
            return
          </CharString>
          <CharString index="332">
            -35 -16 -23 -55 -55 -16 23 35 vhcurveto
            return
          </CharString>
          <CharString index="333">
            -80 -30 -23 -8 0 vhcurveto
            -77 vlineto
            0 return
          </CharString>
          <CharString index="334">
            3 -12 -32 7 -36 hhcurveto
            return
          </CharString>
          <CharString index="335">
            5 -14 -29 8 -40 hhcurveto
            return
          </CharString>
          <CharString index="336">
            -111 -53 -40 -102 hvcurveto
            return
          </CharString>
          <CharString index="337">
            -85 287 -71 -55 return
          </CharString>
          <CharString index="338">
            rmoveto
            152 vlineto
            161 -168 rlineto
            -31 -11 -24 -19 -47 hhcurveto
            -64 -15 28 38 hvcurveto
            return
          </CharString>
          <CharString index="339">
            -95 63 -56 115 -3 vhcurveto
            -150 -133 rlineto
            125 hlineto
            149 138 rlineto
            return
          </CharString>
          <CharString index="340">
            206 rmoveto
            -83 callgsubr
            return
          </CharString>
          <CharString index="341">
            27 -79 hhcurveto
            -171 hlineto
            -17 callgsubr
            -142 vlineto
            -91 45 -50 105 105 return
          </CharString>
          <CharString index="342">
            hlineto
            244 callsubr
            return
          </CharString>
          <CharString index="343">
            7 21 28 2 23 hhcurveto
            52 15 -20 -36 hvcurveto
            return
          </CharString>
          <CharString index="344">
            -91 46 -46 102 31 -36 callsubr
            return
          </CharString>
          <CharString index="345">
            316 callgsubr
            vlineto
            endchar
          </CharString>
          <CharString index="346">
            vlineto
            79 2 42 38 80 vvcurveto
            return
          </CharString>
          <CharString index="347">
            190 callgsubr
            22 4 return
          </CharString>
          <CharString index="348">
            -6 7 -26 -35 vvcurveto
            return
          </CharString>
          <CharString index="349">
            -100 66 -62 123 return
          </CharString>
          <CharString index="350">
            22 0 vhcurveto
            98 -89 callsubr
            return
          </CharString>
          <CharString index="351">
            23 callsubr
            23 181 callgsubr
            return
          </CharString>
          <CharString index="352">
            rmoveto
            43 320 callsubr
            -14 25 -43 -45 -13 -25 -32 -33 13 -25 45 hvcurveto
            return
          </CharString>
          <CharString index="353">
            hlineto
            -85 45 -45 callsubr
            158 102 vlineto
            endchar
          </CharString>
          <CharString index="354">
            -9 hhcurveto
            -30 -2 -15 7 -17 14 rrcurveto
            endchar
          </CharString>
          <CharString index="355">
            hhcurveto
            306 callgsubr
            hvcurveto
            -71 return
          </CharString>
          <CharString index="356">
            21 -12 -29 20 hvcurveto
            70 -104 rlineto
            return
          </CharString>
          <CharString index="357">
            20 341 callsubr
            33 return
          </CharString>
          <CharString index="358">
            164 151 98 85 -499 -85 297 -73 -56 hlineto
            -110 -52 return
          </CharString>
          <CharString index="359">
            -85 189 vlineto
            206 callgsubr
            return
          </CharString>
          <CharString index="360">
            347 callsubr
            19 hvcurveto
            71 -104 rlineto
            102 hlineto
            return
          </CharString>
          <CharString index="361">
            332 callgsubr
            21 31 vhcurveto
            return
          </CharString>
          <CharString index="362">
            28 54 hvcurveto
            2 vlineto
            78 43 36 80 hvcurveto
            return
          </CharString>
          <CharString index="363">
            -61 callsubr
            21 31 vhcurveto
            return
          </CharString>
          <CharString index="364">
            hhcurveto
            100 43 50 89 hvcurveto
            156 vlineto
            89 return
          </CharString>
          <CharString index="365">
            190 callsubr
            8 53 callsubr
            return
          </CharString>
          <CharString index="366">
            vlineto
            32 12 20 52 vhcurveto
            154 168 return
          </CharString>
          <CharString index="367">
            147 rlineto
            57 -41 return
          </CharString>
          <CharString index="368">
            rmoveto
            -87 callgsubr
            return
          </CharString>
          <CharString index="369">
            0 vhcurveto
            96 hlineto
            return
          </CharString>
          <CharString index="370">
            32 7 22 47 return
          </CharString>
          <CharString index="371">
            -109 vlineto
            205 callsubr
            return
          </CharString>
          <CharString index="372">
            vlineto
            -74 288 callgsubr
            return
          </CharString>
          <CharString index="373">
            5 -11 -21 5 return
          </CharString>
          <CharString index="374">
            vhcurveto
            -139 vlineto
            return
          </CharString>
          <CharString index="375">
            58 575 rmoveto
            -88 callsubr
            -280 -85 vlineto
            return
          </CharString>
          <CharString index="376">
            rmoveto
            -82 -61 rlineto
            -82 vlineto
            86 66 rlineto
            -374 72 451 vlineto
            return
          </CharString>
          <CharString index="377">
            409 341 321 callgsubr
            return
          </CharString>
          <CharString index="378">
            -420 hlineto
            -7 -31 -32 -4 -41 hhcurveto
            return
          </CharString>
          <CharString index="379">
            -112 -54 -54 -97 hvcurveto
            -188 vlineto
            return
          </CharString>
          <CharString index="380">
            -19 124 callgsubr
            return
          </CharString>
          <CharString index="381">
            239 callgsubr
            21 24 return
          </CharString>
          <CharString index="382">
            -24 -38 -52 -93 -48 vvcurveto
            -28 15 -16 return
          </CharString>
          <CharString index="383">
            -26 -18 -18 -26 -26 18 -18 26 hvcurveto
            return
          </CharString>
          <CharString index="384">
            25 107 callgsubr
            return
          </CharString>
          <CharString index="385">
            251 callgsubr
            -91 return
          </CharString>
          <CharString index="386">
            hlineto
            -103 260 callsubr
            return
          </CharString>
          <CharString index="387">
            vlineto
            -50 -1 -18 16 38 vvcurveto
            return
          </CharString>
          <CharString index="388">
            hlineto
            0 10 -31 callsubr
            return
          </CharString>
          <CharString index="389">
            26 -7 21 -14 14 vhcurveto
            return
          </CharString>
          <CharString index="390">
            rmoveto
            -32 -8 -20 -49 return
          </CharString>
          <CharString index="391">
            -25 -32 -32 13 -25 return
          </CharString>
          <CharString index="392">
            339 -4 callsubr
            return
          </CharString>
          <CharString index="393">
            120 41 326 callgsubr
            return
          </CharString>
          <CharString index="394">
            vlineto
            -98 38 -56 129 vhcurveto
            86 vlineto
            -56 -11 27 35 hvcurveto
            return
          </CharString>
          <CharString index="395">
            -85 hlineto
            3 -12 -28 7 -43 hhcurveto
            -106 -51 -54 -83 -6 hvcurveto
            return
          </CharString>
          <CharString index="396">
            vlineto
            5 0 5 5 vvcurveto
            -30 callsubr
            return
          </CharString>
          <CharString index="397">
            -85 161 347 callgsubr
            -12 return
          </CharString>
          <CharString index="398">
            7 -22 -32 vhcurveto
            endchar
          </CharString>
          <CharString index="399">
            129 vlineto
            33 return
          </CharString>
          <CharString index="400">
            3 22 1 0 hvcurveto
            94 280 callsubr
            return
          </CharString>
          <CharString index="401">
            -92 49 -54 111 111 49 54 92 vhcurveto
            217 return
          </CharString>
          <CharString index="402">
            -16 33 -68 44 -152 rlineto
            -32 20 -177 42 vhcurveto
            return
          </CharString>
          <CharString index="403">
            rmoveto
            -39 -16 -29 -55 -54 -16 30 39 vhcurveto
            146 vlineto
            return
          </CharString>
          <CharString index="404">
            vlineto
            221 callsubr
            return
          </CharString>
          <CharString index="405">
            vlineto
            -46 11 -32 38 callsubr
            return
          </CharString>
          <CharString index="406">
            88 62 49 99 hvcurveto
            304 vlineto
            87 -54 42 -76 -47 return
          </CharString>
          <CharString index="407">
            hhcurveto
            40 35 4 6 23 hvcurveto
            182 callsubr
            return
          </CharString>
          <CharString index="408">
            -79 hlineto
            39 callsubr
            return
          </CharString>
          <CharString index="409">
            36 vlineto
            282 callsubr
            return
          </CharString>
          <CharString index="410">
            rmoveto
            1 8 9 1 9 hhcurveto
            30 return
          </CharString>
          <CharString index="411">
            4 6 22 vhcurveto
            -96 return
          </CharString>
          <CharString index="412">
            263 callsubr
            46 return
          </CharString>
          <CharString index="413">
            -31 -7 -13 -24 hvcurveto
            return
          </CharString>
          <CharString index="414">
            hvcurveto
            -153 vlineto
            return
          </CharString>
          <CharString index="415">
            -43 -13 16 30 hvcurveto
            5 vlineto
            30 14 16 43 vhcurveto
            return
          </CharString>
          <CharString index="416">
            hvcurveto
            -67 97 61 vlineto
            47 23 27 71 38 34 -8 return
          </CharString>
          <CharString index="417">
            -23 -33 10 -46 hhcurveto
            -22 -26 -4 -4 -14 hvcurveto
            78 return
          </CharString>
          <CharString index="418">
            261 callgsubr
            113 -400 100 575 return
          </CharString>
          <CharString index="419">
            vlineto
            5 17 24 2 19 hhcurveto
            51 11 -20 -36 hvcurveto
            return
          </CharString>
          <CharString index="420">
            22 20 69 callgsubr
            return
          </CharString>
          <CharString index="421">
            -71 -72 callgsubr
            return
          </CharString>
          <CharString index="422">
            109 callsubr
            -21 -1 return
          </CharString>
          <CharString index="423">
            -13 25 -44 -44 -14 -25 return
          </CharString>
          <CharString index="424">
            -14 25 -44 -44 -13 -25 return
          </CharString>
          <CharString index="425">
            vlineto
            86 -39 55 -112 return
          </CharString>
          <CharString index="426">
            -48 -158 hvcurveto
            endchar
          </CharString>
          <CharString index="427">
            14 25 33 32 return
          </CharString>
          <CharString index="428">
            349 callsubr
            3 return
          </CharString>
          <CharString index="429">
            hlineto
            -123 80 -54 121 40 40 5 6 return
          </CharString>
          <CharString index="430">
            hhcurveto
            109 44 51 85 hvcurveto
            158 103 vlineto
            return
          </CharString>
          <CharString index="431">
            431 660 rmoveto
            -463 -85 463 hlineto
            return
          </CharString>
          <CharString index="432">
            18 hhcurveto
            -163 127 rmoveto
            -45 14 -32 28 return
          </CharString>
          <CharString index="433">
            25 26 -18 19 -26 -25 -19 -19 -26 -25 19 return
          </CharString>
          <CharString index="434">
            45 -57 126 57 36 17 24 24 vhcurveto
            -27 return
          </CharString>
          <CharString index="435">
            20 vvcurveto
            36 7 22 41 42 5 -21 -35 vhcurveto
            return
          </CharString>
          <CharString index="436">
            hlineto
            33 15 -14 -15 7 hvcurveto
            return
          </CharString>
          <CharString index="437">
            hhcurveto
            112 342 callgsubr
            return
          </CharString>
          <CharString index="438">
            vlineto
            -4 -20 -22 -3 -19 hhcurveto
            return
          </CharString>
          <CharString index="439">
            vlineto
            78 2 43 38 80 vvcurveto
            return
          </CharString>
          <CharString index="440">
            vhcurveto
            -2 -11 -1 -13 -13 vvcurveto
            return
          </CharString>
          <CharString index="441">
            41 374 rmoveto
            -92 return
          </CharString>
          <CharString index="442">
            304 92 -195 return
          </CharString>
          <CharString index="443">
            -51 109 109 return
          </CharString>
          <CharString index="444">
            98 -87 callgsubr
            return
          </CharString>
          <CharString index="445">
            -115 hlineto
            -134 return
          </CharString>
          <CharString index="446">
            127 hlineto
            92 100 return
          </CharString>
          <CharString index="447">
            34 -8 -4 13 vhcurveto
            return
          </CharString>
          <CharString index="448">
            32 vhcurveto
            103 vlineto
            return
          </CharString>
          <CharString index="449">
            vlineto
            34 13 22 return
          </CharString>
          <CharString index="450">
            160 rmoveto
            -92 384 92 vlineto
            -384 return
          </CharString>
          <CharString index="451">
            -137 172 callgsubr
            return
          </CharString>
          <CharString index="452">
            12 -1 0 vhcurveto
            86 vlineto
            0 -22 2 -20 return
          </CharString>
          <CharString index="453">
            803 303 callsubr
            return
          </CharString>
          <CharString index="454">
            120 callsubr
            21 -12 -29 return
          </CharString>
          <CharString index="455">
            -4 -3 -11 vhcurveto
            -411 -98 69 vlineto
            -2 return
          </CharString>
          <CharString index="456">
            vlineto
            94 -38 52 -102 -103 -39 -56 -91 -20 return
          </CharString>
          <CharString index="457">
            rmoveto
            225 callsubr
            return
          </CharString>
          <CharString index="458">
            vlineto
            -91 45 -50 105 105 43 50 91 vhcurveto
            return
          </CharString>
          <CharString index="459">
            24 33 hvcurveto
            319 121 vlineto
            endchar
          </CharString>
          <CharString index="460">
            -50 -155 hvcurveto
            endchar
          </CharString>
        <CharString name=".notdef">
          345 168 hmoveto
          417 701 -417 hlineto
          70 -65 rmoveto
          278 -571 -278 hlineto
          endchar
        </CharString>
        <CharString name="A">
          -48 callsubr
          -19 92 140 callgsubr
        </CharString>
        <CharString name="AE">
          282 355 267 rmoveto
          -137 hlineto
          137 343 rlineto
          -610 vmoveto
          313 94 -211 203 183 95 -183 195 211 95 -378 hlineto
          -286 -682 rlineto
          107 hlineto
          70 175 rlineto
          174 hlineto
          endchar
        </CharString>
        <CharString name="Aacute">
          -48 callsubr
          -73 658 rmoveto
          -41 -111 rlineto
          61 hlineto
          67 111 rlineto
          -33 -566 140 callgsubr
        </CharString>
        <CharString name="Abreve">
          -48 callsubr
          -19 92 89 callsubr
          52 250 10 callsubr
          endchar
        </CharString>
        <CharString name="Acircumflex">
          -48 callsubr
          -19 92 89 callsubr
          43 139 -44 callsubr
        </CharString>
        <CharString name="Adieresis">
          54 153 731 -94 callsubr
          41 -731 rmoveto
          104 hlineto
          -143 682 rlineto
          -151 hlineto
          -145 -682 rlineto
          105 hlineto
          34 175 rlineto
          161 hlineto
          -19 92 140 callgsubr
        </CharString>
        <CharString name="Agrave">
          -48 callsubr
          -181 658 rmoveto
          67 -111 rlineto
          61 hlineto
          -41 111 rlineto
          75 -566 140 callgsubr
        </CharString>
        <CharString name="Amacron">
          -48 callsubr
          -204 633 rmoveto
          -61 243 61 vlineto
          -58 -541 140 callgsubr
        </CharString>
        <CharString name="Aogonek">
          54 406 hmoveto
          -24 callsubr
          -143 682 rlineto
          -151 hlineto
          -145 -682 rlineto
          105 hlineto
          34 175 rlineto
          161 hlineto
          35 -175 rlineto
          -54 267 140 callgsubr
        </CharString>
        <CharString name="Aring">
          -48 callsubr
          -82 569 rmoveto
          -20 -12 13 20 19 12 13 20 20 12 -13 -19 -20 -12 -13 -20 hvcurveto
          -43 vmoveto
          50 27 34 42 42 -27 33 -50 -49 -28 -33 -42 -42 28 -34 49 hvcurveto
          63 -434 140 callgsubr
        </CharString>
        <CharString name="Atilde">
          -48 callsubr
          -19 92 89 callsubr
          72 244 -71 callgsubr
        </CharString>
        <CharString name="B">
          72 252 295 rmoveto
          51 22 -23 -46 hvcurveto
          -65 vlineto
          -45 -22 -24 -51 vhcurveto
          -86 203 hlineto
          80 295 rmoveto
          51 22 -24 -45 hvcurveto
          -61 vlineto
          -45 -22 -24 -51 vhcurveto
          -80 199 hlineto
          -108 -590 rmoveto
          209 hlineto
          107 58 52 103 hvcurveto
          65 vlineto
          60 -21 47 -57 17 vhcurveto
          52 19 20 46 57 vvcurveto
          60 vlineto
          104 -58 52 -107 vhcurveto
          -203 hlineto
          endchar
        </CharString>
        <CharString name="C">
          -6 48 149 rmoveto
          -95 61 -59 138 48 47 7 8 29 vhcurveto
          -11 callsubr
          endchar
        </CharString>
        <CharString name="CR">
          -408 endchar
        </CharString>
        <CharString name="Cacute">
          -6 48 149 rmoveto
          -95 61 -59 138 48 47 7 8 29 vhcurveto
          -11 callsubr
          198 301 -63 callsubr
        </CharString>
        <CharString name="Ccaron">
          -6 48 149 rmoveto
          -95 61 -59 138 48 47 7 8 29 vhcurveto
          -11 callsubr
          225 301 -70 callsubr
        </CharString>
        <CharString name="Ccedilla">
          -6 48 149 rmoveto
          -84 47 -56 106 -12 vhcurveto
          -15 -70 51 callsubr
          8 34 rlineto
          44 47 7 8 29 hvcurveto
          -11 callsubr
          endchar
        </CharString>
        <CharString name="D">
          70 0 callgsubr
          78 callgsubr
          497 279 callgsubr
          endchar
        </CharString>
        <CharString name="Dcaron">
          70 323 165 rmoveto
          -41 -16 -30 -54 vhcurveto
          -87 497 279 callgsubr
          -265 156 rmoveto
          -682 213 vlineto
          112 48 62 96 hvcurveto
          371 vlineto
          96 -58 57 -108 vhcurveto
          3 151 -70 callsubr
        </CharString>
        <CharString name="Dcroat">
          74 64 682 rmoveto
          -299 -63 -91 63 -292 78 callgsubr
          198 79 91 -79 208 279 callgsubr
          endchar
        </CharString>
        <CharString name="E">
          -39 callsubr
          endchar
        </CharString>
        <CharString name="Eacute">
          -39 callsubr
          -151 151 -63 callsubr
        </CharString>
        <CharString name="Ecaron">
          -39 callsubr
          -123 151 -70 callsubr
        </CharString>
        <CharString name="Ecircumflex">
          -39 callsubr
          -128 40 -44 callsubr
        </CharString>
        <CharString name="Edieresis">
          -39 callsubr
          -234 49 -94 callsubr
          endchar
        </CharString>
        <CharString name="Edotaccent">
          -39 callsubr
          -157 61 27 callgsubr
        </CharString>
        <CharString name="Egrave">
          -39 callsubr
          -256 151 25 callsubr
        </CharString>
        <CharString name="Emacron">
          -39 callsubr
          -283 126 104 callsubr
        </CharString>
        <CharString name="Eogonek">
          137 callsubr
          274 vlineto
          -24 callsubr
          1 94 -211 203 183 95 -183 195 211 95 hlineto
          endchar
        </CharString>
        <CharString name="Eth">
          74 64 682 rmoveto
          -302 -70 -90 70 -290 78 callgsubr
          196 83 90 -83 211 279 callgsubr
          endchar
        </CharString>
        <CharString name="Euro">
          29 69 149 rmoveto
          -95 61 -59 138 48 47 7 8 29 vhcurveto
          98 vlineto
          -9 -32 -46 -6 -44 hhcurveto
          -71 -21 25 40 hvcurveto
          82 129 74 -129 62 129 73 -129 74 vlineto
          41 20 25 72 44 44 -7 -10 31 334 callgsubr
          -44 7 -47 hhcurveto
          -138 -62 -60 -95 hvcurveto
          -83 -52 -73 52 -62 -52 -74 52 vlineto
          endchar
        </CharString>
        <CharString name="F">
          -22 0 callgsubr
          109 276 189 97 -189 214 202 95 vlineto
          endchar
        </CharString>
        <CharString name="G">
          -13 callsubr
          endchar
        </CharString>
        <CharString name="Gbreve">
          -13 callsubr
          243 305 10 callsubr
          endchar
        </CharString>
        <CharString name="H">
          104 345 682 rmoveto
          -299 -178 299 -109 -682 109 287 178 -287 110 682 vlineto
          endchar
        </CharString>
        <CharString name="I">
          61 callsubr
          endchar
        </CharString>
        <CharString name="Iacute">
          61 callsubr
          -48 151 -63 callsubr
        </CharString>
        <CharString name="Icircumflex">
          61 callsubr
          -14 40 -44 callsubr
        </CharString>
        <CharString name="Idieresis">
          61 callsubr
          -132 49 -94 callsubr
          endchar
        </CharString>
        <CharString name="Idotaccent">
          61 callsubr
          -57 61 27 callgsubr
        </CharString>
        <CharString name="Igrave">
          61 callsubr
          -149 151 25 callsubr
        </CharString>
        <CharString name="Imacron">
          61 callsubr
          -174 126 104 callsubr
        </CharString>
        <CharString name="Iogonek">
          125 callsubr
          64 vlineto
          -24 callsubr
          1 682 hlineto
          endchar
        </CharString>
        <CharString name="J">
          -181 61 682 rmoveto
          -480 vlineto
          -97 -15 -63 -25 -87 vhcurveto
          -30 -104 rlineto
          114 hlineto
          31 104 rlineto
          23 78 11 59 111 vvcurveto
          479 vlineto
          endchar
        </CharString>
        <CharString name="K">
          127 callgsubr
          endchar
        </CharString>
        <CharString name="L">
          177 callsubr
          endchar
        </CharString>
        <CharString name="Lacute">
          177 callsubr
          -48 151 -63 callsubr
        </CharString>
        <CharString name="Lcaron">
          -41 231 732 rmoveto
          -26 -137 rlineto
          41 hlineto
          15 21 37 58 29 vvcurveto
          19 -11 10 -20 vhcurveto
          -209 -50 rmoveto
          -682 335 callsubr
          590 vlineto
          endchar
        </CharString>
        <CharString name="Lslash">
          -40 64 682 rmoveto
          -333 vlineto
          -56 -26 rlineto
          -77 vlineto
          56 26 rlineto
          -272 335 callsubr
          230 vlineto
          91 42 rlineto
          76 vlineto
          -91 -42 rlineto
          284 vlineto
          endchar
        </CharString>
        <CharString name="M">
          221 453 682 rmoveto
          -139 -390 -139 390 rlineto
          -117 -682 103 301 hlineto
          109 -13 93 0 vhcurveto
          119 -325 rlineto
          94 hlineto
          118 325 rlineto
          0 -12 -88 -114 vvcurveto
          -301 104 682 vlineto
          endchar
        </CharString>
        <CharString name="N">
          -66 callsubr
          endchar
        </CharString>
        <CharString name="NULL">
          -408 endchar
        </CharString>
        <CharString name="Nacute">
          -66 callsubr
          -196 151 -63 callsubr
        </CharString>
        <CharString name="Ncaron">
          -66 callsubr
          -165 151 -70 callsubr
        </CharString>
        <CharString name="Ntilde">
          -66 callsubr
          -122 145 -71 callgsubr
        </CharString>
        <CharString name="O">
          -84 callsubr
          endchar
        </CharString>
        <CharString name="OE">
          282 245 94 rmoveto
          -53 -16 30 41 hvcurveto
          361 vlineto
          38 16 27 53 vhcurveto
          97 -497 hlineto
          -114 -94 rmoveto
          433 94 -211 203 183 95 -183 195 211 95 -428 hlineto
          -108 -57 -57 -96 hvcurveto
          -371 vlineto
          -96 47 -62 113 vhcurveto
          endchar
        </CharString>
        <CharString name="Oacute">
          -84 callsubr
          -66 314 -63 callsubr
        </CharString>
        <CharString name="Ocircumflex">
          64 316 163 rmoveto
          -45 -23 -30 -57 -58 -22 30 45 vhcurveto
          356 vlineto
          45 22 29 58 57 23 -30 -44 vhcurveto
          -268 -361 rmoveto
          -98 60 102 callsubr
          366 vlineto
          97 -60 71 -128 -128 -60 -71 -97 vhcurveto
          227 198 -44 callsubr
        </CharString>
        <CharString name="Odieresis">
          -84 callsubr
          -156 212 -94 callsubr
          endchar
        </CharString>
        <CharString name="Ograve">
          -84 callsubr
          -182 314 25 callsubr
        </CharString>
        <CharString name="Ohungarumlaut">
          -84 callsubr
          -17 314 47 callsubr
        </CharString>
        <CharString name="Omacron">
          -84 callsubr
          -201 289 104 callsubr
        </CharString>
        <CharString name="Oslash">
          64 48 158 rmoveto
          -37 8 -32 17 -27 vhcurveto
          -28 -62 rlineto
          70 hlineto
          7 16 rlineto
          -17 29 38 -9 47 hhcurveto
          128 60 70 98 hvcurveto
          366 vlineto
          36 -8 33 -18 27 vhcurveto
          29 62 rlineto
          -71 hlineto
          -7 -16 rlineto
          17 -29 -38 9 -46 hhcurveto
          -128 -60 -71 -97 hvcurveto
          108 -5 rmoveto
          45 22 29 58 33 22 -10 -17 12 vhcurveto
          -147 -323 rlineto
          80 -155 rmoveto
          -34 -22 10 18 -12 hvcurveto
          148 323 rlineto
          -276 vlineto
          -45 -23 -30 -57 vhcurveto
          endchar
        </CharString>
        <CharString name="Otilde">
          -84 callsubr
          -11 308 -71 callgsubr
        </CharString>
        <CharString name="P">
          46 0 callgsubr
          108 216 84 vlineto
          108 60 57 96 hvcurveto
          160 vlineto
          96 -60 57 -108 vhcurveto
          60 -303 rmoveto
          -44 -20 -24 -51 vhcurveto
          -73 276 73 hlineto
          51 20 -24 -44 hvcurveto
          endchar
        </CharString>
        <CharString name="Q">
          64 316 163 rmoveto
          -45 -23 -30 -57 -58 -22 30 45 vhcurveto
          356 vlineto
          45 22 29 58 57 23 -30 -44 vhcurveto
          -268 -361 rmoveto
          -98 60 -70 128 10 9 0 1 9 vhcurveto
          80 -85 rlineto
          130 hlineto
          -112 118 rlineto
          42 30 20 47 57 vvcurveto
          366 vlineto
          97 -60 71 -128 -128 -60 -71 -97 vhcurveto
          endchar
        </CharString>
        <CharString name="R">
          61 -41 callgsubr
          endchar
        </CharString>
        <CharString name="Racute">
          61 0 callgsubr
          108 261 61 vlineto
          96 -261 rlineto
          119 hlineto
          -108 273 rlineto
          58 21 26 51 72 vvcurveto
          113 vlineto
          96 -60 56 -108 vhcurveto
          -14 151 rmoveto
          -41 -111 rlineto
          61 hlineto
          67 111 rlineto
          -13 -414 rmoveto
          -47 -19 -23 -50 vhcurveto
          -75 240 75 hlineto
          48 21 -22 -45 hvcurveto
          endchar
        </CharString>
        <CharString name="Rcaron">
          61 -41 callgsubr
          -47 311 -70 callsubr
        </CharString>
        <CharString name="S">
          -88 callgsubr
          endchar
        </CharString>
        <CharString name="Sacute">
          -88 callgsubr
          193 299 -63 callsubr
        </CharString>
        <CharString name="Scaron">
          -88 callgsubr
          221 299 -70 callsubr
        </CharString>
        <CharString name="T">
          87 callsubr
          endchar
        </CharString>
        <CharString name="Tcaron">
          87 callsubr
          -145 151 -70 callsubr
        </CharString>
        <CharString name="Thorn">
          32 246 476 rmoveto
          51 20 -24 -45 hvcurveto
          -132 vlineto
          -44 -20 -24 -51 vhcurveto
          -74 269 hlineto
          -104 206 rmoveto
          -682 104 113 81 vlineto
          108 60 57 96 hvcurveto
          151 vlineto
          96 -60 56 -108 vhcurveto
          -81 113 hlineto
          endchar
        </CharString>
        <CharString name="U">
          71 319 682 -64 callgsubr
          endchar
        </CharString>
        <CharString name="Uacute">
          71 319 682 -64 callgsubr
          -177 151 -63 callsubr
        </CharString>
        <CharString name="Ucircumflex">
          71 319 682 -64 callgsubr
          -149 40 -44 callsubr
        </CharString>
        <CharString name="Udieresis">
          71 319 682 -64 callgsubr
          -264 49 -94 callsubr
          endchar
        </CharString>
        <CharString name="Ugrave">
          71 319 682 -64 callgsubr
          -284 151 25 callsubr
        </CharString>
        <CharString name="Uhungarumlaut">
          71 297 833 rmoveto
          123 callsubr
          -183 hmoveto
          123 callsubr
          43 -151 -64 callgsubr
          endchar
        </CharString>
        <CharString name="Umacron">
          71 319 682 -64 callgsubr
          -310 126 104 callsubr
        </CharString>
        <CharString name="Uogonek">
          71 319 682 rmoveto
          -519 vlineto
          -45 -22 -30 -58 -57 -21 30 45 vhcurveto
          519 -108 -524 vlineto
          -98 58 -70 128 12 11 1 1 10 vhcurveto
          -25 -27 -18 -34 -35 vvcurveto
          -47 31 -26 57 vhcurveto
          19 57 -11 hlineto
          -22 -11 10 26 33 16 34 24 23 hvcurveto
          64 26 31 56 70 vvcurveto
          524 vlineto
          endchar
        </CharString>
        <CharString name="Uring">
          71 319 682 -64 callgsubr
          -186 19 -3 callsubr
        </CharString>
        <CharString name="V">
          42 329 682 rmoveto
          -59 -315 -16 -90 -19 -142 -8 -37 rlinecurve
          -8 37 -20 141 -18 91 -61 315 rcurveline
          -111 hlineto
          141 -682 rlineto
          151 hlineto
          140 682 rlineto
          endchar
        </CharString>
        <CharString name="W">
          193 491 682 rmoveto
          -50 -320 rlineto
          -11 -77 -10 -103 0 vvcurveto
          0 -12 103 -11 77 vhcurveto
          -46 320 rlineto
          -98 hlineto
          -48 -319 rlineto
          -12 -91 -11 -94 0 vvcurveto
          0 -8 94 -13 90 vhcurveto
          -50 320 rlineto
          -98 hlineto
          101 -682 rlineto
          113 hlineto
          50 307 rlineto
          16 99 9 110 0 vvcurveto
          0 10 -108 17 -102 vhcurveto
          49 -306 rlineto
          108 hlineto
          102 682 rlineto
          endchar
        </CharString>
        <CharString name="X">
          20 301 682 rmoveto
          -86 -226 -89 226 rlineto
          -117 hlineto
          147 -342 -147 -340 rlineto
          118 hlineto
          88 224 86 -224 rlineto
          117 hlineto
          -147 340 147 342 rlineto
          endchar
        </CharString>
        <CharString name="Y">
          94 callsubr
          endchar
        </CharString>
        <CharString name="Yacute">
          94 callsubr
          -211 152 -63 callsubr
        </CharString>
        <CharString name="Ydieresis">
          35 144 731 -94 callsubr
          36 -49 rmoveto
          -50 -146 -28 -85 -16 -57 -15 -56 rlinecurve
          -14 56 -16 56 -28 86 -52 146 rcurveline
          -111 hlineto
          165 -461 rlineto
          -221 109 221 vlineto
          165 461 rlineto
          endchar
        </CharString>
        <CharString name="Z">
          33 callgsubr
          endchar
        </CharString>
        <CharString name="Zacute">
          33 callgsubr
          -167 151 -63 callsubr
        </CharString>
        <CharString name="Zcaron">
          33 callgsubr
          -137 151 -70 callsubr
        </CharString>
        <CharString name="Zdotaccent">
          33 callgsubr
          -175 61 27 callgsubr
        </CharString>
        <CharString name="a">
          -103 callgsubr
          endchar
        </CharString>
        <CharString name="aacute">
          -103 callgsubr
          -57 471 -63 callsubr
        </CharString>
        <CharString name="abreve">
          -103 callgsubr
          -9 471 10 callsubr
          endchar
        </CharString>
        <CharString name="acircumflex">
          -103 callgsubr
          -20 360 -44 callsubr
        </CharString>
        <CharString name="acute">
          -58 152 733 -63 callsubr
        </CharString>
        <CharString name="adieresis">
          -103 callgsubr
          -139 369 -94 callsubr
          endchar
        </CharString>
        <CharString name="ae">
          244 195 584 rmoveto
          -62 -55 -12 -8 -23 hvcurveto
          -98 vlineto
          9 23 55 13 54 hhcurveto
          70 16 -24 -35 hvcurveto
          -73 vlineto
          -124 -38 rlineto
          -85 -25 -35 -43 -79 vvcurveto
          -34 vlineto
          -92 49 -49 97 64 53 14 25 33 vhcurveto
          -27 32 48 -14 67 hhcurveto
          68 35 9 9 30 hvcurveto
          97 vlineto
          -7 -24 -46 -12 -55 hhcurveto
          -71 -32 21 52 hvcurveto
          80 244 188 vlineto
          93 -50 65 -122 -57 -42 -19 -23 -27 vhcurveto
          24 -27 -42 13 -59 hhcurveto
          80 -480 rmoveto
          -15 -22 -31 -9 -30 hhcurveto
          -40 -20 18 39 hvcurveto
          29 vlineto
          42 11 18 48 14 vhcurveto
          84 23 rlineto
          244 65 rmoveto
          -142 101 hlineto
          42 23 26 49 49 21 -26 -42 vhcurveto
          endchar
        </CharString>
        <CharString name="agrave">
          -103 callgsubr
          -161 471 25 callsubr
        </CharString>
        <CharString name="amacron">
          -103 callgsubr
          -180 446 104 callsubr
        </CharString>
        <CharString name="ampersand">
          71 239 88 rmoveto
          -57 -21 30 45 hvcurveto
          69 vlineto
          46 19 28 53 vhcurveto
          85 -143 hlineto
          -45 -22 -30 -57 vhcurveto
          -184 384 rmoveto
          -61 26 -40 46 -16 vhcurveto
          -48 -16 -26 -40 -61 vvcurveto
          -78 vlineto
          -97 58 -71 128 128 55 71 97 vhcurveto
          146 46 93 -46 62 -104 -62 -85 vlineto
          -54 -16 27 48 hvcurveto
          45 vlineto
          41 19 28 81 50 41 -7 -12 33 vhcurveto
          102 vlineto
          9 -27 -44 7 -55 hhcurveto
          -144 -62 -63 -95 hvcurveto
          endchar
        </CharString>
        <CharString name="aogonek">
          23 55 467 rmoveto
          9 23 55 12 54 hhcurveto
          69 17 -22 -43 1 hvcurveto
          -71 vlineto
          -125 -34 rlineto
          -86 -24 -37 -44 -79 vvcurveto
          -33 vlineto
          -93 41 -48 96 61 31 22 23 21 vhcurveto
          -42 57 vlineto
          -24 callsubr
          1 423 hlineto
          102 -47 59 -134 -62 -54 -10 -9 -26 vhcurveto
          218 -459 rmoveto
          -14 -18 -31 -12 -32 hhcurveto
          -45 -15 20 37 hvcurveto
          29 vlineto
          42 11 17 48 14 vhcurveto
          82 23 rlineto
          endchar
        </CharString>
        <CharString name="apostrophemod">
          187 callsubr
        </CharString>
        <CharString name="approxequal">
          131 407 315 rmoveto
          10 -57 -40 -10 64 callgsubr
          26 106 vvcurveto
          25 -4 19 0 vhcurveto
          -93 188 rmoveto
          10 -57 -40 -10 64 callgsubr
          26 106 vvcurveto
          25 -4 19 0 vhcurveto
          endchar
        </CharString>
        <CharString name="aring">
          -103 callgsubr
          -64 339 -3 callsubr
        </CharString>
        <CharString name="asciicircum">
          -33 264 389 rmoveto
          107 hlineto
          -120 309 rlineto
          -128 hlineto
          -121 -309 rlineto
          106 hlineto
          78 241 rlineto
          endchar
        </CharString>
        <CharString name="asciitilde">
          112 397 417 rmoveto
          10 -58 -40 -9 64 callgsubr
          25 107 vvcurveto
          25 -4 19 0 vhcurveto
          endchar
        </CharString>
        <CharString name="asterisk">
          116 213 810 rmoveto
          -95 vlineto
          -26 3 -20 5 -15 vhcurveto
          -14 9 -18 9 -24 8 -91 29 rcurveline
          -30 -93 91 -29 24 -8 20 -3 16 -1 rlinecurve
          -13 -10 -14 -14 -15 -20 -56 -77 rcurveline
          80 -58 56 77 14 20 10 17 5 16 rlinecurve
          6 -16 9 -18 14 -20 57 -76 rcurveline
          79 58 -56 76 -15 21 -14 14 -14 10 rlinecurve
          17 21 4 8 24 hvcurveto
          90 29 -30 94 -91 -30 -24 -8 -18 -9 -14 -10 rlinecurve
          5 16 3 20 26 vvcurveto
          95 vlineto
          endchar
        </CharString>
        <CharString name="at">
          477 447 -125 rmoveto
          89 85 -88 hlineto
          -246 -43 127 192 192 42 128 247 248 40 -120 -194 -146 -29 -40 -56 -48 -20 20 53 hvcurveto
          229 vlineto
          77 -42 43 -99 -49 -46 -9 -7 -27 vhcurveto
          -76 vlineto
          10 38 36 9 48 hhcurveto
          47 10 -21 -30 hvcurveto
          -57 vlineto
          -101 -34 rlineto
          -63 -22 -35 -32 -68 vvcurveto
          -21 vlineto
          -73 39 -41 78 56 32 14 10 16 vhcurveto
          -35 23 43 -20 59 hhcurveto
          112 70 67 200 244 -81 155 -299 -294 -88 -162 -243 -243 84 -161 297 hvcurveto
          52 265 rmoveto
          0 -27 -19 -38 -34 -14 12 30 vhcurveto
          23 vlineto
          37 16 10 33 10 vhcurveto
          64 21 rlineto
          endchar
        </CharString>
        <CharString name="atilde">
          -103 callgsubr
          9 465 -71 callgsubr
        </CharString>
        <CharString name="b">
          47 58 733 rmoveto
          -733 199 vlineto
          88 62 47 100 hvcurveto
          305 vlineto
          87 -54 43 -76 -48 -41 -12 -8 -22 vhcurveto
          171 vlineto
          131 -572 rmoveto
          -43 -24 -18 -44 vhcurveto
          -63 363 hlineto
          10 22 28 8 29 hhcurveto
          33 19 -16 -34 hvcurveto
          endchar
        </CharString>
        <CharString name="backslash">
          29 36 825 rmoveto
          269 -982 rlineto
          100 hlineto
          -270 982 rlineto
          endchar
        </CharString>
        <CharString name="bar">
          -193 69 840 rmoveto
          -1009 76 1009 vlineto
          endchar
        </CharString>
        <CharString name="braceleft">
          -28 227 669 rmoveto
          32 17 22 45 vhcurveto
          29 92 -36 hlineto
          -96 -53 -60 -90 hvcurveto
          -223 vlineto
          -42 -26 -23 -47 vhcurveto
          -3 -93 3 hlineto
          47 26 -23 -42 hvcurveto
          -224 vlineto
          -90 53 -60 96 vhcurveto
          36 93 -29 hlineto
          -45 -17 21 32 hvcurveto
          204 vlineto
          78 -17 47 -72 11 vhcurveto
          72 12 17 50 79 vvcurveto
          endchar
        </CharString>
        <CharString name="braceright">
          -30 316 377 rmoveto
          -47 -26 23 42 hvcurveto
          223 vlineto
          90 -53 60 -96 vhcurveto
          -36 -92 29 hlineto
          45 17 -22 -32 hvcurveto
          -197 vlineto
          -79 17 -50 72 -12 vhcurveto
          -72 -11 -17 -47 -78 vvcurveto
          -204 vlineto
          -32 -17 -21 -45 vhcurveto
          -29 -93 36 hlineto
          96 53 60 90 hvcurveto
          224 vlineto
          42 26 23 47 vhcurveto
          4 93 hlineto
          endchar
        </CharString>
        <CharString name="bracketleft">
          -76 85 825 rmoveto
          -982 210 86 -121 811 121 85 vlineto
          endchar
        </CharString>
        <CharString name="bracketright">
          -76 36 825 rmoveto
          -85 122 -811 -122 -86 211 982 vlineto
          endchar
        </CharString>
        <CharString name="breve">
          -58 227 733 10 callsubr
          endchar
        </CharString>
        <CharString name="brokenbar">
          69 840 rmoveto
          -384 76 384 vlineto
          -76 -625 rmoveto
          -384 76 384 vlineto
          endchar
        </CharString>
        <CharString name="bullet">
          -147 129 246 rmoveto
          65 21 37 48 48 -21 38 -65 -65 -20 -38 -48 -48 20 -37 65 hvcurveto
          endchar
        </CharString>
        <CharString name="c">
          -35 48 152 rmoveto
          -102 57 -55 124 55 31 6 9 30 vhcurveto
          -10 callsubr
          endchar
        </CharString>
        <CharString name="cacute">
          -35 48 152 rmoveto
          -102 57 -55 124 55 31 6 9 30 vhcurveto
          -10 callsubr
          189 307 -63 callsubr
        </CharString>
        <CharString name="caron">
          -58 213 733 -70 callsubr
        </CharString>
        <CharString name="ccaron">
          -35 48 152 rmoveto
          -102 57 -55 124 55 31 6 9 30 vhcurveto
          -10 callsubr
          215 307 -70 callsubr
        </CharString>
        <CharString name="ccedilla">
          -35 48 152 rmoveto
          -88 43 -54 92 -12 vhcurveto
          -15 -71 51 callsubr
          8 34 rlineto
          51 31 6 9 30 hvcurveto
          -10 callsubr
          endchar
        </CharString>
        <CharString name="cedilla">
          -58 144 6 rmoveto
          -17 -79 51 callsubr
          10 45 rlineto
          endchar
        </CharString>
        <CharString name="cent">
          -18 181 654 rmoveto
          -74 vlineto
          -87 -14 -41 -53 -87 vvcurveto
          -274 vlineto
          -85 40 -53 85 -15 vhcurveto
          -71 100 69 vlineto
          30 2 21 5 21 6 rrcurveto
          100 vlineto
          -7 -23 -36 -9 -42 hhcurveto
          -66 -22 20 46 hvcurveto
          259 vlineto
          45 22 20 66 40 36 -8 -6 24 vhcurveto
          100 vlineto
          -19 5 -21 5 -28 2 rrcurveto
          72 vlineto
          endchar
        </CharString>
        <CharString name="circumflex">
          -58 213 622 -44 callsubr
        </CharString>
        <CharString name="colon">
          -180 97 343 rmoveto
          46 16 25 35 37 -16 25 -46 -47 -15 -25 -37 -35 15 -25 47 hvcurveto
          -351 vmoveto
          16 callgsubr
        </CharString>
        <CharString name="comma">
          -227 218 callgsubr
          endchar
        </CharString>
        <CharString name="copyright">
          289 349 hmoveto
          245 61 141 188 194 -54 137 -252 -249 -59 -140 -191 -191 60 -138 248 hvcurveto
          -123 272 rmoveto
          -75 36 -46 97 39 29 7 2 9 vhcurveto
          71 vlineto
          -6 -30 -16 -2 -29 hhcurveto
          -52 -4 22 29 hvcurveto
          112 vlineto
          30 4 22 52 28 16 -3 -6 30 vhcurveto
          71 vlineto
          2 -9 -28 7 -39 hhcurveto
          -97 -36 -45 -76 hvcurveto
          123 -310 rmoveto
          -204 -21 104 147 147 18 105 207 207 17 -103 -149 -144 -24 -107 -200 hvcurveto
          endchar
        </CharString>
        <CharString name="currency">
          52 305 296 rmoveto
          -46 -17 -27 -56 -57 -17 27 46 vhcurveto
          90 vlineto
          46 17 26 57 56 17 -27 -45 vhcurveto
          71 -286 rmoveto
          64 64 -46 46 rlineto
          11 23 5 29 31 vvcurveto
          96 vlineto
          31 -5 28 -11 23 vhcurveto
          47 46 -64 64 -47 -46 rlineto
          11 -26 -32 7 -40 hhcurveto
          -40 -32 -7 -12 -26 hvcurveto
          -47 47 -64 -64 47 -46 rlineto
          -11 -23 -5 -28 -31 vvcurveto
          -96 vlineto
          -31 5 -28 11 -24 vhcurveto
          -47 -46 64 -64 47 47 rlineto
          -12 26 32 -6 40 hhcurveto
          40 32 6 12 25 hvcurveto
          endchar
        </CharString>
        <CharString name="d">
          46 67 callsubr
          endchar
        </CharString>
        <CharString name="dagger">
          -38 137 804 rmoveto
          -71 7 -81 0 vhcurveto
          0 -47 8 -62 vhcurveto
          -85 vlineto
          62 47 7 0 hvcurveto
          0 -7 -80 -88 vvcurveto
          -444 99 444 vlineto
          88 -8 80 0 vhcurveto
          0 51 -7 59 vhcurveto
          85 vlineto
          -59 -51 -8 0 hvcurveto
          0 8 81 71 vvcurveto
          endchar
        </CharString>
        <CharString name="daggerdbl">
          -37 136 804 rmoveto
          -71 8 -81 0 vhcurveto
          0 -48 8 -62 vhcurveto
          -85 vlineto
          62 48 7 0 hvcurveto
          -2 -100 0 -186 2 -104 rrcurveto
          0 -48 7 -62 vhcurveto
          -84 vlineto
          62 48 7 0 hvcurveto
          0 -8 -54 -98 vvcurveto
          99 hlineto
          98 -7 54 0 vhcurveto
          0 47 -7 62 vhcurveto
          84 vlineto
          -62 -47 -7 0 hvcurveto
          2 104 0 187 -2 99 rrcurveto
          0 47 -7 62 vhcurveto
          85 vlineto
          -62 -47 -8 0 hvcurveto
          0 7 81 71 vvcurveto
          endchar
        </CharString>
        <CharString name="danda">
          -106 144 hmoveto
          100 660 -100 hlineto
          endchar
        </CharString>
        <CharString name="dcaron">
          62 67 callsubr
          174 250 50 callgsubr
        </CharString>
        <CharString name="dcroat">
          48 289 733 rmoveto
          -47 -126 -55 126 -52 -70 vlineto
          -110 -59 -62 -102 hvcurveto
          -279 vlineto
          -88 45 -52 90 59 33 26 15 16 vhcurveto
          -37 105 631 40 55 -40 47 vlineto
          -108 -614 rmoveto
          -12 -14 -28 -12 -34 hhcurveto
          -38 -18 19 37 hvcurveto
          261 vlineto
          47 26 23 47 vhcurveto
          59 hlineto
          endchar
        </CharString>
        <CharString name="degree">
          -5 202 500 rmoveto
          113 43 68 93 93 -43 70 -113 -112 -43 -70 -93 -93 43 -68 112 hvcurveto
          81 vmoveto
          -54 -12 32 48 48 12 32 54 54 13 -32 -48 -48 -13 -32 -54 hvcurveto
          endchar
        </CharString>
        <CharString name="dieresis">
          -58 99 631 -94 callsubr
          endchar
        </CharString>
        <CharString name="divide">
          58 41 373 rmoveto
          -92 383 92 vlineto
          -190 -275 rmoveto
          43 14 25 32 32 317 callsubr
          -32 -32 13 -25 45 hvcurveto
          -1 343 rmoveto
          44 14 25 32 32 317 callsubr
          -32 -32 13 -25 44 hvcurveto
          endchar
        </CharString>
        <CharString name="dollar">
          4 154 741 rmoveto
          -60 vlineto
          -88 -16 -42 -54 -77 vvcurveto
          -61 vlineto
          -72 36 -43 56 -31 vhcurveto
          111 -61 rlineto
          38 -20 12 -17 -37 vvcurveto
          -30 vlineto
          -38 -28 -29 -75 -56 -54 12 14 -33 vhcurveto
          -105 vlineto
          19 -8 44 -9 51 -3 rrcurveto
          -60 102 65 vlineto
          94 17 46 53 80 vvcurveto
          58 vlineto
          65 -28 39 -54 29 vhcurveto
          -115 65 rlineto
          -42 23 -13 18 42 vvcurveto
          33 vlineto
          39 21 25 65 56 45 -10 -12 341 callsubr
          -19 6 -34 9 -46 3 rrcurveto
          55 vlineto
          endchar
        </CharString>
        <CharString name="dotaccent">
          -58 174 643 27 callgsubr
        </CharString>
        <CharString name="dotlessi">
          61 callgsubr
          endchar
        </CharString>
        <CharString name="dottedcircle">
          252 183 472 rmoveto
          26 18 19 26 25 -18 19 -26 -26 -18 -19 -25 -26 18 -19 26 hvcurveto
          -80 -109 rmoveto
          24 20 19 25 25 -20 19 -24 -26 -20 -19 -25 -25 20 -19 26 hvcurveto
          -15 -125 rmoveto
          26 18 18 326 callsubr
          -18 25 hvcurveto
          52 -117 rmoveto
          25 19 18 26 25 -19 19 -25 -26 -18 -19 -25 -26 18 -18 26 hvcurveto
          102 -77 rmoveto
          25 19 20 26 24 -19 20 -25 -26 -19 -20 -24 -26 19 -20 26 hvcurveto
          126 -14 rmoveto
          26 19 18 26 26 -19 18 -26 276 callsubr
          121 53 rmoveto
          25 20 18 26 25 -20 19 -25 -25 -19 -19 -25 -26 19 -18 25 hvcurveto
          74 98 rmoveto
          24 19 19 25 26 -19 19 -24 -26 -19 -19 -26 -25 19 -19 26 hvcurveto
          9 134 rmoveto
          25 19 18 26 26 -19 18 -25 276 callsubr
          -50 118 rmoveto
          26 18 19 326 callsubr
          -19 25 hvcurveto
          -94 68 rmoveto
          25 18 20 24 26 -18 19 -25 -26 -19 -19 -26 -24 19 -20 26 hvcurveto
          -127 15 rmoveto
          26 18 18 26 26 -18 18 -26 276 callsubr
          endchar
        </CharString>
        <CharString name="doubledanda">
          36 79 hmoveto
          100 660 -100 hlineto
          207 -660 rmoveto
          100 660 -100 hlineto
          endchar
        </CharString>
        <CharString name="dvA">
          176 232 191 139 callgsubr
          89 85 -189 -361 -102 vlineto
          -75 callgsubr
          endchar
        </CharString>
        <CharString name="dvAA">
          404 245 191 139 callgsubr
          115 -88 callsubr
          -405 -361 -102 vlineto
          -75 callgsubr
          endchar
        </CharString>
        <CharString name="dvAI">
          25 280 660 rmoveto
          -312 -85 87 -421 hlineto
          325 callgsubr
          91 vlineto
          -9 -32 -41 -10 -50 hhcurveto
          -65 -21 26 44 hvcurveto
          418 78 callsubr
          -83 vlineto
          -155 229 rlineto
          -112 hlineto
          endchar
        </CharString>
        <CharString name="dvAU">
          405 369 143 callsubr
          -102 -361 -102 hlineto
          -75 callgsubr
          -57 vlineto
          17 callgsubr
          116 -88 callsubr
          -94 vlineto
          14 callgsubr
          endchar
        </CharString>
        <CharString name="dvAbbreviationsign">
          -5 202 170 rmoveto
          113 43 66 93 93 -43 67 -113 -112 -43 -67 -93 -93 43 -66 112 hvcurveto
          236 vmoveto
          54 13 -30 -48 -48 -13 -28 -54 -54 -12 28 48 48 12 30 54 hvcurveto
          endchar
        </CharString>
        <CharString name="dvAcandra">
          176 232 191 139 callgsubr
          89 85 -189 -361 -102 vlineto
          -75 callgsubr
          330 621 rmoveto
          84 callgsubr
        </CharString>
        <CharString name="dvAnusvara">
          -408 -108 727 rmoveto
          -40 callgsubr
          endchar
        </CharString>
        <CharString name="dvAnusvara.amI">
          -408 90 724 rmoveto
          -40 callgsubr
          endchar
        </CharString>
        <CharString name="dvAvagraha">
          13 389 195 rmoveto
          65 -13 41 -65 41 vhcurveto
          -128 81 rlineto
          -34 21 -10 20 33 vvcurveto
          18 vlineto
          29 6 23 56 vhcurveto
          164 93 -171 hlineto
          -115 -40 -51 -89 hvcurveto
          -27 vlineto
          -58 23 -45 54 -33 vhcurveto
          130 -82 rlineto
          35 -22 8 -20 -36 vvcurveto
          -49 vlineto
          -33 -12 -27 -60 vhcurveto
          -5 hlineto
          -60 -12 27 33 hvcurveto
          64 -100 -61 vlineto
          -99 50 -57 119 vhcurveto
          12 hlineto
          119 49 57 99 hvcurveto
          endchar
        </CharString>
        <CharString name="dvB">
          -163 -32 660 rmoveto
          -85 430 85 vlineto
          -360 -446 rmoveto
          -97 54 -55 122 120 53 52 100 vhcurveto
          139 vlineto
          100 -53 53 -120 -128 -48 -55 -98 vhcurveto
          259 -114 rmoveto
          -150 157 rlineto
          16 12 21 9 36 hhcurveto
          61 20 -27 -45 hvcurveto
          -163 -19 rmoveto
          151 -158 rlineto
          -17 -12 -21 -9 -36 hhcurveto
          -63 -19 26 46 hvcurveto
          endchar
        </CharString>
        <CharString name="dvBA">
          36 291 132 callgsubr
          -507 -85 323 vlineto
          -74 -154 20 callsubr
        </CharString>
        <CharString name="dvBH">
          12 252 196 283 callsubr
          17 callsubr
          250 85 rmoveto
          -150 3 callsubr
          153 vlineto
          endchar
        </CharString>
        <CharString name="dvBHA">
          208 253 196 52 callsubr
          85 vmoveto
          -57 hlineto
          -110 -44 -49 -86 hvcurveto
          -85 -69 callsubr
        </CharString>
        <CharString name="dvBH_LA">
          636 252 196 283 callsubr
          17 callsubr
          734 -329 rmoveto
          -72 callsubr
          -667 -85 478 -99 vlineto
          5 -12 -21 5 -29 hhcurveto
          -55 37 callsubr
          -71 -48 -26 -46 -22 hvcurveto
          -115 3 callsubr
          103 -162 vlineto
          -57 callgsubr
          -15 33 45 hvcurveto
          168 vlineto
          32 10 171 callgsubr
        </CharString>
        <CharString name="dvBH_NA">
          590 252 196 283 callsubr
          17 callsubr
          688 -329 261 callsubr
          -617 -85 427 320 callgsubr
          -74 -44 -25 -46 -20 hvcurveto
          -107 107 hlineto
          91 -47 53 -107 -107 -47 -53 -91 -24 4 -21 183 callsubr
          -4 21 21 69 callgsubr
          -104 172 callgsubr
          -85 vlineto
          -86 45 147 callgsubr
          135 98 -131 -97 callsubr
          103 -393 hlineto
          -199 393 rmoveto
          170 callsubr
        </CharString>
        <CharString name="dvBH_R">
          29 506 437 rmoveto
          -150 84 hlineto
          73 callgsubr
          -17 4 -19 183 callsubr
          -4 15 18 vvcurveto
          32 8 22 47 46 8 -22 -32 vhcurveto
          -81 -57 vlineto
          -110 -45 -49 -85 hvcurveto
          -42 vlineto
          -85 45 -51 110 107 46 51 85 vhcurveto
          91 154 vlineto
          -53 vmoveto
          -308 -351 rlineto
          121 hlineto
          80 90 46 51 46 73 15 30 rlinecurve
          -250 72 83 callgsubr
          endchar
        </CharString>
        <CharString name="dvBH_RA">
          212 462 248 -29 callgsubr
          -110 -45 -49 -85 hvcurveto
          -42 vlineto
          -85 45 -51 110 107 46 51 85 vhcurveto
          91 110 vlineto
          -206 -88 83 callgsubr
          endchar
        </CharString>
        <CharString name="dvBH_R_YA">
          515 253 264 -82 callsubr
          30 vlineto
          33 77 callsubr
          100 84 rmoveto
          90 vlineto
          73 callgsubr
          -12 2 -27 183 callsubr
          -1 26 10 vvcurveto
          305 callsubr
          8 -22 -32 vhcurveto
          -87 -57 vlineto
          -110 -44 -49 -86 hvcurveto
          -36 vlineto
          -85 44 -51 110 109 44 51 85 vhcurveto
          85 65 vlineto
          16 14 -1 -5 9 hvcurveto
          -76 vlineto
          -15 1 -13 2 -13 vhcurveto
          -240 -274 rlineto
          121 hlineto
          80 90 28 32 29 39 21 33 rlinecurve
          -39 37 59 -17 70 hhcurveto
          51 32 9 16 21 hvcurveto
          -111 -72 callgsubr
          -546 -85 127 vlineto
          28 12 -20 -39 hvcurveto
          -56 vlineto
          -41 -13 -17 -37 -7 vhcurveto
          25 -17 -34 11 -52 hhcurveto
          130 -157 rmoveto
          49 332 callsubr
          73 245 callgsubr
          -84 -30 32 63 hvcurveto
          endchar
        </CharString>
        <CharString name="dvBH_VA">
          439 693 157 rmoveto
          -4 -10 -27 -6 -32 hhcurveto
          -52 -22 239 callgsubr
          22 7 callgsubr
          12 vhcurveto
          -441 -215 283 callsubr
          17 callsubr
          537 -329 261 callsubr
          -466 -85 276 209 callsubr
          -86 -47 -33 -59 -16 hvcurveto
          -108 3 callsubr
          104 -123 vlineto
          -93 45 -52 111 38 29 7 3 13 vhcurveto
          -71 vlineto
          endchar
        </CharString>
        <CharString name="dvBH_YA">
          515 253 196 136 callgsubr
          160 hmoveto
          22 callgsubr
          -110 -44 -49 -85 hvcurveto
          -92 vlineto
          -86 44 -50 110 228 callgsubr
          141 vlineto
          324 181 74 callgsubr
          endchar
        </CharString>
        <CharString name="dvB_BA">
          299 554 180 callgsubr
          -111 -59 -42 -106 hvcurveto
          -103 vlineto
          -162 129 -74 callgsubr
          125 57 41 14 25 26 vhcurveto
          -27 30 45 -12 59 hhcurveto
          37 28 6 4 14 hvcurveto
          -72 95 -72 callsubr
          -770 -85 586 vlineto
          -336 -429 28 callgsubr
          262 hmoveto
          -42 callsubr
        </CharString>
        <CharString name="dvB_BHA">
          463 -32 575 rmoveto
          281 85 -281 hlineto
          540 -464 52 callsubr
          -292 -183 134 callsubr
          292 268 rmoveto
          210 callsubr
          -21 126 callsubr
          52 38 12 22 26 vhcurveto
          -25 25 39 -13 57 hhcurveto
          109 45 50 86 hvcurveto
          135 108 -329 -93 callgsubr
          -190 -246 -105 107 vlineto
          91 -47 53 -107 -108 -46 -53 -91 -22 3 -23 183 callsubr
          -3 25 17 69 callgsubr
          endchar
        </CharString>
        <CharString name="dvB_BH_RA">
          464 -31 575 rmoveto
          282 85 -282 hlineto
          745 -412 -29 callgsubr
          -110 -45 -49 -85 hvcurveto
          -42 vlineto
          -2 vlineto
          -157 125 -74 callgsubr
          122 81 47 29 50 20 vhcurveto
          -10 23 30 -6 36 hhcurveto
          107 46 51 85 hvcurveto
          91 110 vlineto
          -498 -206 134 callsubr
          292 118 83 callgsubr
          endchar
        </CharString>
        <CharString name="dvB_DA">
          268 218 146 28 callgsubr
          409 111 rmoveto
          -99 -93 hlineto
          -4 -19 -16 -3 -27 310 callgsubr
          52 vhcurveto
          154 168 93 85 -739 -85 546 119 callsubr
          -98 vlineto
          -157 125 -74 callgsubr
          125 58 39 14 26 25 vhcurveto
          -23 26 38 -11 50 hhcurveto
          33 23 3 4 19 hvcurveto
          -79 99 vlineto
          endchar
        </CharString>
        <CharString name="dvB_DHA">
          337 216 146 134 callsubr
          97 429 rmoveto
          0 -10 68 callsubr
          -8 126 callsubr
          59 40 15 28 26 vhcurveto
          -30 32 50 -15 63 hhcurveto
          46 33 5 7 24 hvcurveto
          -22 callgsubr
          -526 -85 hlineto
          endchar
        </CharString>
        <CharString name="dvB_DH_VA">
          579 201 callsubr
          614 350 109 callgsubr
          -12 1 -11 1 -10 vhcurveto
          -7 -31 -32 -5 -33 -46 callgsubr
          -500 -85 342 127 callsubr
          -18 vlineto
          -158 126 151 callsubr
          63 43 18 32 25 vhcurveto
          -27 33 50 -14 66 hhcurveto
          55 48 12 11 38 hvcurveto
          -35 callsubr
        </CharString>
        <CharString name="dvB_JA">
          485 630 348 rmoveto
          38 -9 20 0 vhcurveto
          114 -406 100 575 84 85 -951 41 callsubr
          -496 121 116 callgsubr
        </CharString>
        <CharString name="dvB_JHA">
          588 216 135 rmoveto
          -63 -19 26 45 hvcurveto
          99 vlineto
          159 -128 rlineto
          -28 -8 -23 -14 -46 hhcurveto
          367 100 rmoveto
          50 14 -22 -33 hvcurveto
          -30 vlineto
          -33 -16 -22 163 callgsubr
          173 callgsubr
          100 51 37 99 hvcurveto
          35 vlineto
          26 -8 22 -14 13 vhcurveto
          115 -240 -93 callgsubr
          -1060 -85 667 -71 -84 hlineto
          -105 251 callgsubr
          -17 2 -15 3 -13 vhcurveto
          -103 -74 hlineto
          -158 126 rlineto
          25 9 23 13 45 hhcurveto
          24 20 -5 0 hvcurveto
          85 vlineto
          0 -23 4 -28 -123 -48 -55 -97 267 callsubr
          -98 54 -55 122 125 40 63 82 vhcurveto
          40 vlineto
          171 85 rmoveto
          -44 -11 17 30 hvcurveto
          4 vlineto
          30 12 16 44 vhcurveto
          184 158 103 -255 hlineto
          endchar
        </CharString>
        <CharString name="dvB_J_YA">
          788 115 660 rmoveto
          -85 136 85 vlineto
          695 -144 217 callgsubr
          56 239 callsubr
          92 -450 rmoveto
          -93 callgsubr
          -934 -85 547 hlineto
          0 8 -31 callsubr
          -49 vlineto
          -37 -11 -18 -29 -7 vhcurveto
          59 -7 -47 29 -90 hhcurveto
          -218 -92 73 281 callsubr
          -130 vlineto
          -43 -26 -22 -53 -34 -51 14 7 -25 vhcurveto
          -36 -87 rlineto
          -11 34 61 -14 54 hhcurveto
          113 63 52 101 hvcurveto
          139 vlineto
          38 -9 20 0 vhcurveto
          22 hlineto
          60 24 -7 -41 hvcurveto
          -95 vlineto
          -28 callgsubr
          -1000 201 rmoveto
          -27 vlineto
          5 1 5 2 4 vhcurveto
          -2 4 -1 4 5 vvcurveto
          349 -27 rmoveto
          27 vlineto
          -5 -1 -4 -2 -5 vhcurveto
          2 -4 1 -4 -5 vvcurveto
          -135 -109 rmoveto
          -20 -42 44 39 -28 hvcurveto
          -1 16 17 0 19 hhcurveto
          104 54 13 27 12 hvcurveto
          -8 20 -29 12 -51 6 rrcurveto
          24 -12 -73 65 -29 hhcurveto
          -12 8 -1 -3 11 -8 rrcurveto
          20 43 -45 -39 27 hvcurveto
          1 -16 -19 1 -21 hhcurveto
          -110 -51 -15 -26 -12 hvcurveto
          9 -19 30 -13 55 -5 rrcurveto
          -24 8 76 -66 29 hhcurveto
          15 -7 0 2 -11 9 rrcurveto
          endchar
        </CharString>
        <CharString name="dvB_JxA">
          485 630 209 rmoveto
          139 vlineto
          38 -9 20 0 vhcurveto
          114 -406 -72 callgsubr
          -956 41 callsubr
          -306 -191 rmoveto
          -44 -14 -25 -33 -32 14 -25 44 107 callsubr
          hvcurveto
          -190 312 116 callgsubr
        </CharString>
        <CharString name="dvB_LA">
          486 218 146 28 callgsubr
          618 429 rmoveto
          90 85 -958 -85 768 -99 hlineto
          -37 callgsubr
          -103 -53 -54 -91 hvcurveto
          -87 vlineto
          -163 130 -74 callgsubr
          125 42 33 7 14 25 vhcurveto
          -54 24 53 -29 91 13 callgsubr
          vlineto
          endchar
        </CharString>
        <CharString name="dvB_L_YA">
          779 201 callsubr
          723 370 -49 callgsubr
          -106 258 callsubr
          -37 -11 -18 -31 -8 vhcurveto
          56 -17 -45 35 -77 hhcurveto
          -53 -30 323 callgsubr
          -47 -54 -91 hvcurveto
          -83 vlineto
          -157 125 151 callsubr
          40 32 7 14 24 vhcurveto
          -55 23 51 -28 90 hhcurveto
          16 38 1 1 9 hvcurveto
          91 vlineto
          -1 -10 -36 0 -13 300 callgsubr
          49 18 callgsubr
          9 23 45 49 7 -23 -33 vhcurveto
          -75 vlineto
          -126 93 -51 121 40 326 callgsubr
          -1251 -85 vlineto
          endchar
        </CharString>
        <CharString name="dvB_NA">
          428 210 413 rmoveto
          60 15 -25 -47 hvcurveto
          -79 vlineto
          -146 113 rlineto
          25 8 20 13 43 hhcurveto
          -267 vmoveto
          -60 -16 26 46 hvcurveto
          90 vlineto
          148 -116 rlineto
          -30 -6 -21 -16 -45 hhcurveto
          468 247 rmoveto
          -393 -93 callgsubr
          -900 -85 710 320 callgsubr
          -46 -34 -9 -19 -24 hvcurveto
          25 -25 -39 15 -58 hhcurveto
          -123 -48 -55 -97 hvcurveto
          -131 vlineto
          -97 48 -55 123 51 36 11 20 25 vhcurveto
          -24 24 38 -12 52 hhcurveto
          105 44 50 91 hvcurveto
          -89 callgsubr
        </CharString>
        <CharString name="dvB_R">
          -161 26 -76 rmoveto
          125 hlineto
          145 143 rlineto
          57 57 36 32 74 vvcurveto
          123 vlineto
          100 -53 53 -120 -128 -47 -55 -98 vhcurveto
          -123 vlineto
          -89 44 -51 100 -9 vhcurveto
          -217 494 rmoveto
          443 85 -443 hlineto
          250 -239 rmoveto
          60 21 -24 -47 hvcurveto
          -81 vlineto
          -157 115 rlineto
          24 9 22 13 45 hhcurveto
          -259 vmoveto
          -63 -18 25 46 hvcurveto
          86 vlineto
          158 -116 rlineto
          -27 -8 -23 -14 -46 hhcurveto
          endchar
        </CharString>
        <CharString name="dvB_RA">
          38 293 493 rmoveto
          5 -14 -28 8 -40 hhcurveto
          -111 -59 -42 -106 hvcurveto
          -132 vlineto
          -91 45 -34 81 -8 vhcurveto
          -128 -138 rlineto
          116 hlineto
          133 145 2 1 2 0 1 1 rlinecurve
          -102 95 -87 callgsubr
          -510 -85 325 vlineto
          -73 -413 95 callsubr
        </CharString>
        <CharString name="dvB_SA">
          461 218 146 149 callgsubr
          162 -131 rlineto
          -4 vlineto
          -24 -10 -23 -12 -45 hhcurveto
          403 -132 rmoveto
          94 vlineto
          -12 -34 -35 -83 callsubr
          -932 -85 531 hlineto
          -98 callsubr
          -192 vlineto
          -157 125 rlineto
          24 9 23 13 45 hhcurveto
          15 13 -2 0 hvcurveto
          84 vlineto
          0 -16 3 -19 -123 44 callsubr
          125 39 32 7 12 24 vhcurveto
          -54 27 59 -32 87 hhcurveto
          341 callgsubr
          31 hvcurveto
          89 349 rmoveto
          -105 hlineto
          -78 callgsubr
          111 hlineto
          endchar
        </CharString>
        <CharString name="dvB_SHA">
          460 -32 575 rmoveto
          280 85 -280 hlineto
          742 hmoveto
          -660 -93 callgsubr
          vlineto
          -682 -514 28 callgsubr
          410 373 rmoveto
          91 -52 55 -111 -111 -51 -55 -91 -17 2 -17 1 -8 vhcurveto
          100 hlineto
          -1 7 -2 14 16 vvcurveto
          32 12 26 50 51 12 -24 -32 vhcurveto
          -128 340 callgsubr
          -26 -25 6 4 -11 vhcurveto
          61 -100 -149 -1 0 vlineto
          -163 130 -74 callgsubr
          125 44 34 8 16 26 vhcurveto
          -54 26 56 -33 85 hhcurveto
          128 callgsubr
          hvcurveto
          -75 callsubr
          endchar
        </CharString>
        <CharString name="dvB_TA">
          298 218 146 28 callgsubr
          253 -53 rmoveto
          -51 -1 -18 16 38 vvcurveto
          199 vlineto
          36 19 26 56 30 30 -6 -2 11 149 callsubr
          89 85 -769 -85 580 148 callsubr
          -112 -51 -61 -91 hvcurveto
          -94 vlineto
          -163 130 -74 callgsubr
          125 38 31 6 12 23 vhcurveto
          -53 15 41 -29 81 hhcurveto
          25 hlineto
          endchar
        </CharString>
        <CharString name="dvB_VA">
          283 218 146 149 callgsubr
          159 -129 rlineto
          -28 -8 -23 -14 -44 hhcurveto
          315 350 rmoveto
          37 callgsubr
          -102 vlineto
          -157 125 -74 callgsubr
          125 54 37 13 23 25 vhcurveto
          -24 26 39 -13 55 145 callsubr
          -754 -85 565 vlineto
          4 -418 -95 callgsubr
          endchar
        </CharString>
        <CharString name="dvB_YA">
          358 218 146 28 callgsubr
          298 370 -66 callgsubr
          -5 133 callsubr
          125 74 46 23 41 23 vhcurveto
          -28 38 53 -12 59 29 callsubr
          89 85 -829 -85 vlineto
          endchar
        </CharString>
        <CharString name="dvC">
          299 callgsubr
          9 -417 rmoveto
          -7 -21 -33 -4 -26 hhcurveto
          -50 -24 173 callsubr
          50 -50 108 31 43 5 7 22 vhcurveto
          endchar
        </CharString>
        <CharString name="dvCA">
          67 179 258 callgsubr
          -258 -90 73 257 callgsubr
          48 -50 108 31 29 4 7 22 vhcurveto
          -69 -72 callgsubr
          -538 -85 349 189 callsubr
          endchar
        </CharString>
        <CharString name="dvCH">
          121 264 488 rmoveto
          -85 vlineto
          0 22 10 29 54 17 -22 -46 vhcurveto
          -169 vlineto
          -55 -19 -21 -98 -99 -19 15 53 vhcurveto
          17 vlineto
          41 18 15 51 vhcurveto
          61 89 -64 hlineto
          -51 -10 21 33 hvcurveto
          125 vlineto
          44 13 22 49 vhcurveto
          343 85 -593 -85 111 hlineto
          -15 -13 -8 -20 -31 vvcurveto
          -131 vlineto
          71 callsubr
          89 -52 50 -99 -37 -32 -10 0 vhcurveto
          endchar
        </CharString>
        <CharString name="dvCHA">
          121 53 380 111 callgsubr
          -592 -85 96 -15 callsubr
        </CharString>
        <CharString name="dvCH_R">
          -21 callgsubr
          276 -690 -42 callgsubr
          endchar
        </CharString>
        <CharString name="dvCH_RA">
          -21 callgsubr
          endchar
        </CharString>
        <CharString name="dvCH_R_YA">
          632 266 10 rmoveto
          4 hlineto
          55 -123 rlineto
          104 hlineto
          -66 131 rlineto
          86 18 32 48 88 vvcurveto
          187 vlineto
          18 -1 16 -3 14 vhcurveto
          167 317 callgsubr
          -11 vlineto
          -38 -16 -11 -52 vhcurveto
          -54 -70 52 callgsubr
          -1108 -85 96 200 callgsubr
          -136 vlineto
          93 callgsubr
          -83 36 -45 87 -17 vhcurveto
          -66 -131 rlineto
          104 hlineto
          55 123 rlineto
          518 134 rmoveto
          -83 -26 28 54 hvcurveto
          1 vlineto
          78 44 36 79 hvcurveto
          25 vlineto
          91 -48 41 -106 vhcurveto
          -224 76 469 271 callsubr
          -629 372 rmoveto
          -58 callgsubr
        </CharString>
        <CharString name="dvCH_YA">
          623 973 hmoveto
          -72 callsubr
          -1094 -85 111 vlineto
          -15 -13 -8 -20 -31 vvcurveto
          -131 vlineto
          9 callsubr
          200 vlineto
          11 -1 10 -1 10 vhcurveto
          148 hlineto
          44 9 -18 -31 hvcurveto
          -5 213 callsubr
          vlineto
          -609 501 rmoveto
          -85 vlineto
          0 22 10 29 54 17 -22 -47 vhcurveto
          -181 vlineto
          -55 -19 -21 -98 -99 -19 15 53 vhcurveto
          17 vlineto
          41 18 15 51 vhcurveto
          61 89 -64 hlineto
          -51 -10 21 33 hvcurveto
          125 vlineto
          44 13 22 49 vhcurveto
          655 -420 hlineto
          -7 -32 -32 -4 -40 hhcurveto
          -84 -25 255 callsubr
          18 vlineto
          91 -47 41 -106 vhcurveto
          -212 hlineto
          11 -22 -28 5 -33 hhcurveto
          -37 1 -32 -10 0 vvcurveto
          endchar
        </CharString>
        <CharString name="dvC_CA">
          315 427 258 callgsubr
          -224 -86 39 hlineto
          0 -7 -28 -44 vvcurveto
          -122 vlineto
          -19 2 -17 3 -15 vhcurveto
          -5 -20 -24 -3 -27 hhcurveto
          -52 -30 17 44 hvcurveto
          119 vlineto
          184 callgsubr
          52 86 -228 -90 73 257 callgsubr
          65 -50 108 57 48 12 10 27 vhcurveto
          -14 24 33 -8 42 hhcurveto
          31 28 4 7 23 hvcurveto
          -69 -72 callgsubr
          -786 -85 597 189 callsubr
          endchar
        </CharString>
        <CharString name="dvC_CHA">
          270 callsubr
          -15 -34 -43 vvcurveto
          -29 vlineto
          -2 0 -2 -2 vvcurveto
          -6 -22 -26 -4 -29 57 callsubr
          45 38 8 8 26 vhcurveto
          -44 30 62 -20 103 hhcurveto
          227 callgsubr
          hvcurveto
          206 callsubr
          -880 -85 384 -15 callsubr
        </CharString>
        <CharString name="dvC_CH_VA">
          270 callsubr
          -16 -34 -43 vvcurveto
          -29 vlineto
          -2 0 -3 -2 vvcurveto
          -5 -22 -26 -4 -28 57 callsubr
          45 37 8 8 26 vhcurveto
          12 -18 17 -13 22 -10 rrcurveto
          -24 -18 -17 -26 -41 vvcurveto
          -35 vlineto
          -97 61 -44 106 33 28 4 6 23 vhcurveto
          -52 100 316 vlineto
          36 26 14 41 59 vvcurveto
          187 vlineto
          64 -18 43 -46 199 callgsubr
          -880 -85 383 vlineto
          0 -10 -20 -39 vvcurveto
          201 -660 rmoveto
          -58 -20 22 39 hvcurveto
          31 vlineto
          39 19 23 57 vhcurveto
          0 vlineto
          4 5 0 4 hhcurveto
          25 22 1 2 20 hvcurveto
          -147 vlineto
          -7 -24 -22 -3 -32 hhcurveto
          -101 660 rmoveto
          40 10 19 0 vhcurveto
          161 -77 hlineto
          -37 -26 -10 0 hvcurveto
          -83 vlineto
          0 22 8 32 52 16 -22 -46 vhcurveto
          -169 vlineto
          -55 -19 -21 -99 -98 -19 15 53 vhcurveto
          17 vlineto
          41 18 15 51 vhcurveto
          61 89 -64 hlineto
          -51 -10 21 33 hvcurveto
          endchar
        </CharString>
        <CharString name="dvC_MA">
          481 630 304 callgsubr
          102 -137 vlineto
          -199 -241 -99 callgsubr
          199 -352 rmoveto
          337 callsubr
          -952 -85 565 295 callgsubr
          -14 1 -13 3 -12 vhcurveto
          -5 -20 -23 -3 -24 57 callsubr
          55 46 12 10 26 vhcurveto
          -14 24 33 -8 42 157 callsubr
        </CharString>
        <CharString name="dvC_NA">
          466 716 393 rmoveto
          -393 -93 callgsubr
          -942 -85 752 220 callgsubr
          -15 1 -15 3 -12 vhcurveto
          -5 -21 -25 -4 -26 hhcurveto
          -52 -28 173 callsubr
          63 -50 108 56 45 12 10 29 vhcurveto
          -15 23 32 -8 42 hhcurveto
          105 44 50 91 hvcurveto
          -89 callgsubr
        </CharString>
        <CharString name="dvC_R">
          299 callgsubr
          21 -400 rmoveto
          -6 -21 -26 -5 -38 hhcurveto
          -56 -25 20 42 hvcurveto
          101 vlineto
          138 callsubr
          -259 -90 74 150 callgsubr
          -105 vlineto
          -93 46 -50 102 -5 vhcurveto
          -154 -136 rlineto
          125 hlineto
          147 136 rlineto
          endchar
        </CharString>
        <CharString name="dvC_RA">
          68 181 258 callgsubr
          -253 -90 68 150 callgsubr
          -71 vlineto
          -81 34 -49 74 -14 vhcurveto
          -130 -144 rlineto
          120 hlineto
          135 150 rlineto
          1 2 1 1 hhcurveto
          -120 101 -72 callsubr
          -540 -85 350 -374 vlineto
          -7 -20 -20 -4 -25 hhcurveto
          -50 -22 20 42 hvcurveto
          endchar
        </CharString>
        <CharString name="dvC_YA">
          395 553 516 -66 callgsubr
          -37 8 -30 14 -25 vhcurveto
          -9 -29 -32 -7 -34 hhcurveto
          -52 -30 20 42 hvcurveto
          110 vlineto
          138 callsubr
          -258 -90 73 150 callgsubr
          -114 vlineto
          -97 65 -51 115 80 54 25 18 32 vhcurveto
          -16 34 42 -7 46 29 callsubr
          89 85 -866 -85 vlineto
          endchar
        </CharString>
        <CharString name="dvCandrabindu">
          -408 -108 869 rmoveto
          155 callsubr
          85 hmoveto
          84 callgsubr
        </CharString>
        <CharString name="dvD">
          8 37 211 -85 callsubr
          -480 -85 287 -76 -54 hlineto
          -111 -53 -40 -102 hvcurveto
          450 -575 -42 callgsubr
          endchar
        </CharString>
        <CharString name="dvDA">
          8 37 211 -85 callsubr
          -480 -85 287 -76 -54 hlineto
          -111 -53 -40 -102 hvcurveto
          endchar
        </CharString>
        <CharString name="dvDA_mvR">
          8 37 258 rmoveto
          -93 52 -50 105 27 27 3 5 22 vhcurveto
          -50 vlineto
          -100 -53 -47 -103 -102 64 -48 103 31 23 2 5 32 hvcurveto
          93 vlineto
          -4 -28 -25 -2 -30 hhcurveto
          -40 -33 6 50 51 31 6 41 25 23 -2 -5 34 hvcurveto
          313 -99 -74 vlineto
          -3 -14 -19 -5 -30 hhcurveto
          -52 -17 21 36 hvcurveto
          94 170 callgsubr
        </CharString>
        <CharString name="dvDD">
          12 384 -55 callsubr
          -10 45 42 -5 53 hhcurveto
          128 62 48 99 hvcurveto
          -1 -357 -42 callgsubr
          endchar
        </CharString>
        <CharString name="dvDDA">
          12 384 -55 callsubr
          -10 45 42 -5 53 hhcurveto
          128 62 48 99 hvcurveto
          endchar
        </CharString>
        <CharString name="dvDDH">
          12 205 501 rmoveto
          -111 -49 -44 -97 hvcurveto
          -212 vlineto
          -98 52 -55 118 117 50 52 98 vhcurveto
          -52 callsubr
          149 165 97 85 -483 -85 288 -74 hlineto
          128 -719 -42 callgsubr
          endchar
        </CharString>
        <CharString name="dvDDHA">
          12 205 501 rmoveto
          -111 -49 -44 -97 hvcurveto
          -212 vlineto
          -98 52 -55 118 117 50 52 98 vhcurveto
          -52 callsubr
          149 165 97 85 -483 -85 288 -74 hlineto
          endchar
        </CharString>
        <CharString name="dvDDH_DDHA">
          34 289 callgsubr
          -45 13 -36 27 -25 vhcurveto
          -29 -22 -13 -34 -47 vvcurveto
          -142 vlineto
          -96 58 -52 118 117 56 49 96 vhcurveto
          13 vlineto
          87 -52 38 226 callsubr
          14 8 23 31 20 -12 -39 vhcurveto
          -6 vlineto
          -36 324 callgsubr
          44 14 21 56 vhcurveto
          8 hlineto
          118 56 49 95 hvcurveto
          15 vlineto
          86 -52 39 226 callsubr
          13 8 24 31 20 -13 -38 vhcurveto
          -8 213 callgsubr
          114 85 -505 -85 292 -74 hlineto
          endchar
        </CharString>
        <CharString name="dvDDH_R">
          12 388 -319 -42 callgsubr
          -77 820 rmoveto
          -111 -49 -44 -97 hvcurveto
          -212 vlineto
          -68 25 -47 54 -22 vhcurveto
          -69 -137 rlineto
          104 hlineto
          54 121 rlineto
          2 hlineto
          6 hlineto
          54 -121 rlineto
          104 hlineto
          -69 138 rlineto
          50 22 22 45 66 vvcurveto
          -52 callsubr
          149 165 97 85 -483 -85 288 -74 hlineto
          endchar
        </CharString>
        <CharString name="dvDDH_RA">
          12 205 501 rmoveto
          -111 -49 -44 -97 hvcurveto
          -212 vlineto
          -67 24 -47 54 -23 vhcurveto
          -68 -134 rlineto
          104 hlineto
          53 118 rlineto
          3 hlineto
          2 3 0 2 hhcurveto
          53 -118 rlineto
          104 hlineto
          -68 135 rlineto
          49 23 22 45 65 vvcurveto
          -52 callsubr
          149 165 97 85 -483 -85 288 -74 hlineto
          endchar
        </CharString>
        <CharString name="dvDDH_VA">
          38 289 callgsubr
          -60 23 -40 47 -20 vhcurveto
          -3 -7 -2 -8 -10 vvcurveto
          -40 -19 -37 -31 -60 24 -47 66 hvcurveto
          13 -30 33 -12 46 4 rrcurveto
          16 15 -29 2 6 hvcurveto
          76 -27 18 233 -39 58 rlineto
          46 19 23 39 60 vvcurveto
          15 vlineto
          86 -52 39 226 callsubr
          13 8 26 29 20 -15 -35 vhcurveto
          -9 213 callgsubr
          119 85 -510 -85 292 -74 hlineto
          -71 -558 rmoveto
          -27 -10 26 19 26 4 23 27 hvcurveto
          8 -1 13 12 vvcurveto
          -1 13 15 -1 15 hhcurveto
          20 18 1 3 17 hvcurveto
          -3 -14 -1 -15 -13 vvcurveto
          -3 -5 -10 -103 -9 hhcurveto
          -30 -2 -16 7 -17 14 rrcurveto
          endchar
        </CharString>
        <CharString name="dvDDH_YA">
          517 215 -5 rmoveto
          305 callgsubr
          hvcurveto
          -52 callsubr
          319 hlineto
          44 9 -17 -32 hvcurveto
          -12 213 callsubr
          -72 callgsubr
          -988 -85 288 -74 -51 vlineto
          188 callgsubr
          vhcurveto
          448 149 rmoveto
          -84 -25 28 54 hvcurveto
          2 vlineto
          77 44 36 80 hvcurveto
          25 vlineto
          91 -47 41 -107 vhcurveto
          -167 74 413 -420 hlineto
          -7 -32 -32 -4 -40 hhcurveto
          endchar
        </CharString>
        <CharString name="dvDDHxA">
          12 205 501 192 callsubr
          -49 39 -83 -29 -19 -8 0 vhcurveto
          -89 vlineto
          0 13 8 23 29 19 -12 -39 vhcurveto
          -24 vlineto
          -38 -13 -25 -58 -58 -13 26 38 vhcurveto
          206 vlineto
          32 11 21 50 vhcurveto
          149 165 97 85 -483 -85 288 -74 hlineto
          -40 -686 -57 callsubr
          endchar
        </CharString>
        <CharString name="dvDD_DDA">
          29 33 88 rmoveto
          13 -3 15 -3 16 -3 rrcurveto
          -9 -17 -5 -21 -21 vvcurveto
          -96 69 -23 83 vhcurveto
          25 hlineto
          46 13 -14 -30 1 hvcurveto
          -11 vlineto
          -38 -23 -12 -67 -49 -67 9 10 -45 vhcurveto
          -84 vlineto
          -11 46 59 -8 56 hhcurveto
          132 61 38 93 219 callsubr
          -13 11 31 31 13 13 41 hvcurveto
          0 vlineto
          129 61 38 93 219 callsubr
          -13 11 30 -1 hvcurveto
          4 vlineto
          30 14 11 41 vhcurveto
          251 callsubr
          -39 -79 hvcurveto
          -8 vlineto
          -96 59 -23 101 214 callsubr
        </CharString>
        <CharString name="dvDD_DDHA">
          28 33 88 rmoveto
          12 -3 14 -3 15 -2 rrcurveto
          -19 -24 -9 -31 -36 vvcurveto
          -126 vlineto
          -95 58 -52 118 117 56 49 95 vhcurveto
          14 vlineto
          87 -52 38 226 callsubr
          14 8 23 31 20 -14 -35 vhcurveto
          -9 vlineto
          -35 324 callgsubr
          41 12 22 46 2 vhcurveto
          0 3 vlineto
          130 63 37 94 219 callsubr
          -14 11 31 31 14 13 41 hvcurveto
          251 callsubr
          -38 -85 hvcurveto
          -6 vlineto
          -92 61 -24 99 214 callsubr
        </CharString>
        <CharString name="dvDD_R">
          9 379 -55 callsubr
          21 -5 21 -3 21 -3 -63 -125 rcurveline
          104 hlineto
          54 121 rlineto
          3 2 1 3 hhcurveto
          54 -122 rlineto
          104 hlineto
          -71 140 rlineto
          52 23 25 42 63 vvcurveto
          -2 -458 -42 callgsubr
          endchar
        </CharString>
        <CharString name="dvDD_RA">
          12 384 -55 callsubr
          20 -4 20 -4 20 -2 84 callsubr
          23 24 42 62 vvcurveto
          endchar
        </CharString>
        <CharString name="dvDD_VA">
          34 35 86 rmoveto
          24 -5 29 -4 30 -4 rrcurveto
          -1 -3 0 -4 -5 vvcurveto
          -40 -20 -37 -31 -60 25 -47 66 hvcurveto
          13 -30 33 -12 45 4 rrcurveto
          17 14 -29 2 7 hvcurveto
          76 -27 18 233 -42 57 rlineto
          51 20 24 36 59 vvcurveto
          12 vlineto
          93 -53 34 -109 vhcurveto
          -32 hlineto
          -41 -13 11 29 hvcurveto
          3 vlineto
          30 13 13 41 vhcurveto
          164 151 99 85 -505 -85 302 -73 -55 hlineto
          -110 -53 -39 -79 hvcurveto
          -8 vlineto
          -96 60 -23 100 vhcurveto
          30 hlineto
          45 13 -15 -29 1 hvcurveto
          -10 vlineto
          -42 -29 -9 -61 -49 -80 8 11 -47 vhcurveto
          156 -228 rmoveto
          -27 -11 26 19 26 5 23 27 hvcurveto
          7 -1 11 14 vvcurveto
          -1 9 9 0 9 hhcurveto
          27 24 2 3 21 hvcurveto
          -3 -17 -2 -19 -16 vvcurveto
          -2 -6 -10 -95 247 callsubr
        </CharString>
        <CharString name="dvDD_YA">
          514 194 -8 rmoveto
          128 62 48 99 hvcurveto
          22 vlineto
          92 -51 43 -111 vhcurveto
          -22 hlineto
          -45 -11 20 30 hvcurveto
          23 vlineto
          29 12 19 44 vhcurveto
          322 317 callgsubr
          -19 vlineto
          -38 -17 -11 -51 vhcurveto
          -54 -72 52 callgsubr
          -986 230 callsubr
          vlineto
          143 callgsubr
          -10 45 42 -5 53 hhcurveto
          466 152 rmoveto
          -83 -26 255 callsubr
          32 vlineto
          92 -47 36 -106 vhcurveto
          -164 71 409 -420 hlineto
          -7 -31 -33 -4 -40 hhcurveto
          endchar
        </CharString>
        <CharString name="dvDDxA">
          12 216 -185 245 callsubr
          168 346 -54 callgsubr
          -483 -85 287 -71 -55 hlineto
          -105 -52 -39 -91 hvcurveto
          -13 callgsubr
        </CharString>
        <CharString name="dvDH">
          -119 360 165 rmoveto
          -8 -28 -47 -7 -36 hhcurveto
          -61 -38 18 55 hvcurveto
          40 -24 callgsubr
          -54 vlineto
          -96 70 -56 118 43 47 7 8 32 vhcurveto
          endchar
        </CharString>
        <CharString name="dvDHA">
          90 66 575 rmoveto
          0 -10 68 callsubr
          -54 vlineto
          -99 69 -53 118 46 33 5 7 24 vhcurveto
          -22 callgsubr
          -279 -85 hlineto
          endchar
        </CharString>
        <CharString name="dvDH_MA">
          504 556 197 82 callgsubr
          97 267 callgsubr
          103 29 callgsubr
          -612 -85 224 215 callgsubr
          -109 -44 -49 -86 hvcurveto
          -109 vlineto
          -11 1 -10 1 -10 vhcurveto
          -7 -29 -33 -5 -34 hhcurveto
          -66 -36 18 55 hvcurveto
          39 -24 callgsubr
          -52 vlineto
          -97 67 -56 130 61 48 14 11 36 vhcurveto
          -18 24 35 -10 48 hhcurveto
          110 44 51 85 hvcurveto
          158 103 vlineto
          endchar
        </CharString>
        <CharString name="dvDH_NA">
          485 735 393 rmoveto
          -393 -93 callgsubr
          -613 -85 423 220 callgsubr
          -13 1 -12 2 -11 vhcurveto
          -7 -29 -31 -5 -33 hhcurveto
          -66 -36 18 55 hvcurveto
          40 -24 callgsubr
          -54 vlineto
          -96 67 -56 130 58 48 13 11 35 vhcurveto
          -18 24 35 -9 45 hhcurveto
          105 43 50 91 hvcurveto
          131 vlineto
          33 -7 27 -2 4 vhcurveto
          -95 hmoveto
          170 callsubr
        </CharString>
        <CharString name="dvDH_N_YA">
          805 539 389 rmoveto
          229 callgsubr
          -123 vlineto
          -32 -10 -20 -44 -43 -10 -12 callsubr
          138 vlineto
          32 10 20 43 vhcurveto
          468 127 -105 callsubr
          -105 134 rmoveto
          62 callgsubr
          -39 -12 -18 -33 -7 vhcurveto
          59 -19 -53 28 -79 hhcurveto
          -174 hlineto
          -105 -44 -50 -91 hvcurveto
          -142 vlineto
          -13 1 -12 2 -11 vhcurveto
          -7 -30 -33 -5 -34 hhcurveto
          -66 -36 18 55 hvcurveto
          40 -24 callgsubr
          -54 vlineto
          -96 67 -56 130 60 49 13 11 36 vhcurveto
          -18 24 34 -9 45 hhcurveto
          105 44 50 91 hvcurveto
          127 -73 callsubr
          39 hlineto
          44 26 -14 -36 hvcurveto
          -76 vlineto
          -64 callsubr
          -910 -85 vlineto
          endchar
        </CharString>
        <CharString name="dvDH_R">
          -119 50 238 rmoveto
          232 callsubr
          95 vlineto
          -6 -34 -30 -4 -37 hhcurveto
          -64 -37 18 56 hvcurveto
          25 60 callgsubr
          42 77 callgsubr
          67 85 -264 125 callgsubr
          -45 -4 callgsubr
          endchar
        </CharString>
        <CharString name="dvDH_RA">
          93 343 182 rmoveto
          57 callgsubr
          83 85 -282 -85 97 198 callsubr
          -51 vlineto
          -46 12 -32 34 -18 vhcurveto
          115 callsubr
        </CharString>
        <CharString name="dvDH_VA">
          332 582 496 109 callgsubr
          -12 1 -11 1 -10 vhcurveto
          -7 -31 -32 -5 -33 -46 callgsubr
          -253 -85 95 127 callsubr
          -52 vlineto
          -96 67 -56 130 55 48 12 11 38 vhcurveto
          -35 callsubr
        </CharString>
        <CharString name="dvDH_YA">
          407 565 516 -47 callsubr
          -253 -85 95 hlineto
          0 -7 -20 -39 vvcurveto
          -46 vlineto
          -46 11 -32 35 -18 vhcurveto
          26 callgsubr
        </CharString>
        <CharString name="dvD_BA">
          37 208 127 rmoveto
          22 44 3 8 20 hvcurveto
          -120 vlineto
          -128 101 rlineto
          5 10 14 3 325 callsubr
          -20 vhcurveto
          -26 -20 -16 -30 -48 vvcurveto
          -51 vlineto
          -95 48 -52 124 124 50 55 96 1 vhcurveto
          305 -98 -105 vlineto
          -4 -19 -29 -4 -26 hhcurveto
          -58 -17 23 36 hvcurveto
          86 344 callgsubr
          95 85 -508 286 callgsubr
          -413 rmoveto
          -66 -11 30 40 hvcurveto
          48 vlineto
          2 0 2 2 vvcurveto
          137 -107 rlineto
          -11 -12 -18 -6 -30 hhcurveto
          endchar
        </CharString>
        <CharString name="dvD_BHA">
          134 218 -69 rmoveto
          11 -15 3 -17 -25 -19 -27 -19 -15 9 -11 15 -8 11 rcurveline
          -11 16 -3 16 25 19 33 24 rcurveline
          -28 278 rmoveto
          -79 38 -48 76 -13 vhcurveto
          -63 -45 -39 54 -37 52 -50 9 -60 -45 rlinecurve
          -61 -43 -8 -51 36 -50 16 -23 rcurveline
          60 44 -15 20 -11 15 -3 15 25 19 rlinecurve
          25 17 12 -8 12 -14 38 -53 rcurveline
          -32 -23 -62 -45 -6 -51 34 -46 rlinecurve
          10 -15 35 -48 50 -11 62 44 rlinecurve
          62 45 5 51 -34 48 -29 41 rcurveline
          140 100 rlineto
          2 2 1 2 hhcurveto
          -88 99 270 -99 -93 vlineto
          -4 -19 -16 -3 -27 hhcurveto
          -51 -19 21 36 hvcurveto
          103 vlineto
          32 12 20 52 vhcurveto
          155 168 93 85 -606 -85 412 119 callsubr
          endchar
        </CharString>
        <CharString name="dvD_B_RA">
          33 208 170 rmoveto
          25 41 4 9 21 hvcurveto
          -109 vlineto
          -2 vlineto
          -128 91 rlineto
          5 10 13 2 325 callsubr
          -21 vhcurveto
          -26 -19 -16 -31 -48 vvcurveto
          -33 vlineto
          -83 36 -43 83 -10 vhcurveto
          -102 -111 rlineto
          116 hlineto
          112 123 1 1 2 0 2 1 rlinecurve
          -76 97 451 -97 -62 vlineto
          -7 -17 -26 -6 -32 hhcurveto
          -58 -17 24 35 hvcurveto
          44 344 callgsubr
          92 85 -505 286 callgsubr
          -353 rmoveto
          -66 -11 29 41 hvcurveto
          31 vlineto
          3 0 3 3 vvcurveto
          135 -96 -8 -6 -10 -4 -13 -2 rlinecurve
          -12 hlineto
          -1 -2 rlineto
          -5 -4 0 -5 hhcurveto
          endchar
        </CharString>
        <CharString name="dvD_DA">
          13 43 366 rmoveto
          -45 15 -30 28 -18 vhcurveto
          -28 -18 -15 -30 -45 vvcurveto
          -51 vlineto
          -86 52 -48 105 36 26 5 4 13 vhcurveto
          -71 99 228 -99 -74 vlineto
          -3 -10 -24 -6 -29 hhcurveto
          -52 -16 21 33 hvcurveto
          45 vlineto
          33 11 20 52 vhcurveto
          101 86 -101 hlineto
          -52 -11 20 32 hvcurveto
          7 -15 callgsubr
          52 vhcurveto
          155 148 90 85 -484 -85 293 -68 -65 hlineto
          -106 -47 -40 -90 hvcurveto
          endchar
        </CharString>
        <CharString name="dvD_DHA">
          177 212 211 rmoveto
          343 callgsubr
          -61 -32 11 47 vhcurveto
          202 callgsubr
          17 79 -17 110 callgsubr
          161 callsubr
          87 85 -649 -85 462 -76 -55 hlineto
          -111 -52 -40 -102 hvcurveto
          endchar
        </CharString>
        <CharString name="dvD_GA">
          22 47 228 rmoveto
          -61 22 -43 46 -22 vhcurveto
          -58 vlineto
          -36 -6 -20 -48 -7 -17 1 0 vhcurveto
          -85 vlineto
          0 17 -4 22 101 32 41 95 vhcurveto
          49 vlineto
          21 28 3 7 21 hvcurveto
          -255 99 442 -99 -101 vlineto
          -3 -13 -19 -4 -31 hhcurveto
          -52 -16 21 36 hvcurveto
          124 -15 callgsubr
          52 vhcurveto
          155 168 96 85 -494 -85 298 -76 -55 181 callsubr
          endchar
        </CharString>
        <CharString name="dvD_GHA">
          180 196 -6 rmoveto
          -61 -32 11 47 hvcurveto
          202 callgsubr
          57 -78 hlineto
          343 callgsubr
          vhcurveto
          247 81 rmoveto
          161 callsubr
          90 85 -652 -85 462 -76 -55 hlineto
          -107 -52 -37 -94 -4 hvcurveto
          -57 110 callgsubr
          endchar
        </CharString>
        <CharString name="dvD_G_RA">
          16 375 -166 rmoveto
          481 -99 -89 vlineto
          -3 -13 -19 -4 -31 hhcurveto
          -51 -17 22 35 hvcurveto
          79 vlineto
          32 12 20 51 vhcurveto
          155 168 92 85 -487 -85 295 -76 -55 hlineto
          -111 -52 -40 -102 hvcurveto
          -84 vlineto
          -58 20 -41 40 -23 vhcurveto
          -45 vlineto
          -36 -6 -20 -47 -8 -17 2 0 vhcurveto
          -86 vlineto
          0 15 -4 24 102 31 41 95 vhcurveto
          32 3 vlineto
          25 26 2 8 23 hvcurveto
          -107 vlineto
          -210 -239 rlineto
          107 hlineto
          21 23 51 56 29 37 11 23 rlinecurve
          1 -1 rlineto
          -3 -10 0 -25 -23 vvcurveto
          -40 vlineto
          endchar
        </CharString>
        <CharString name="dvD_MA">
          248 376 107 rmoveto
          202 -96 -77 vlineto
          -2 -6 -26 -9 -38 hhcurveto
          -58 -15 24 33 hvcurveto
          74 vlineto
          32 12 23 58 vhcurveto
          160 168 133 -468 hlineto
          -85 vmoveto
          -125 98 678 90 85 -720 -85 299 -76 -60 vlineto
          -117 -53 -43 -101 hvcurveto
          -77 vlineto
          -92 53 -53 108 28 38 5 8 16 vhcurveto
          -180 95 56 vlineto
          endchar
        </CharString>
        <CharString name="dvD_NA">
          9 37 225 rmoveto
          -76 35 -40 71 -11 vhcurveto
          -54 -40 -75 -59 -6 -63 41 -45 rlinecurve
          28 -31 41 -2 0 vvcurveto
          64 56 rlineto
          0 -30 6 -15 16 vhcurveto
          -18 21 -1 24 34 27 117 92 rcurveline
          -104 99 274 -99 -91 vlineto
          -5 -19 -16 -3 -27 90 callsubr
          127 170 callgsubr
        </CharString>
        <CharString name="dvD_R">
          12 494 -223 -42 callgsubr
          -347 448 rmoveto
          -78 36 -40 74 -11 vhcurveto
          -117 -162 rlineto
          111 hlineto
          123 169 1 1 2 0 2 1 rlinecurve
          -109 98 261 -98 -60 vlineto
          -18 -14 -12 -9 -37 hhcurveto
          -52 -17 22 36 hvcurveto
          127 259 callsubr
          93 85 -484 -85 291 329 callgsubr
        </CharString>
        <CharString name="dvD_RA">
          12 42 230 -8 callgsubr
          -484 -85 292 329 callgsubr
        </CharString>
        <CharString name="dvD_VA">
          16 210 131 callsubr
          -66 393 rmoveto
          32 12 20 52 vhcurveto
          154 168 93 85 -487 -85 294 119 callsubr
          95 callgsubr
        </CharString>
        <CharString name="dvD_YA">
          84 524 660 rmoveto
          -556 -85 170 -65 hlineto
          -56 -5 -39 -25 -74 vvcurveto
          -23 vlineto
          -42 13 -32 36 -19 vhcurveto
          -34 -19 -15 -35 -42 vvcurveto
          -18 vlineto
          -96 57 -49 123 46 41 6 7 30 vhcurveto
          -44 94 -45 callgsubr
          vlineto
          -190 hmoveto
          -442 vlineto
          -7 -23 -39 -5 -34 hhcurveto
          -66 -28 11 55 hvcurveto
          9 vlineto
          32 15 24 51 vhcurveto
          32 81 -38 hlineto
          -51 1 -10 21 32 vvcurveto
          14 vlineto
          37 17 13 42 vhcurveto
          36 124 hlineto
          endchar
        </CharString>
        <CharString name="dvE">
          25 366 106 rmoveto
          -9 -32 -40 -10 -51 hhcurveto
          -67 -21 26 46 hvcurveto
          416 78 callsubr
          -497 -85 87 -418 vlineto
          -110 58 -52 128 54 44 10 10 27 vhcurveto
          endchar
        </CharString>
        <CharString name="dvEcandra">
          25 307 872 rmoveto
          -44 -26 -15 -59 101 callgsubr
          -42 120 119 64 42 101 vhcurveto
          3 vlineto
          -41 -766 rmoveto
          -9 -32 -41 -10 -50 hhcurveto
          -65 -21 26 44 hvcurveto
          418 78 callsubr
          -497 -85 87 -421 vlineto
          325 callgsubr
          endchar
        </CharString>
        <CharString name="dvEight">
          3 callgsubr
        </CharString>
        <CharString name="dvEyelash">
          -148 -32 575 rmoveto
          438 85 -438 hlineto
          438 -320 rmoveto
          -193 hlineto
          -61 -34 1 49 hvcurveto
          -99 -9 hlineto
          -101 75 -27 120 vhcurveto
          192 hlineto
          endchar
        </CharString>
        <CharString name="dvEyelash_HA">
          235 254 140 rmoveto
          -92 56 -54 126 57 52 5 9 44 vhcurveto
          86 vlineto
          -9 -48 -40 -3 -59 hhcurveto
          -66 -22 24 39 hvcurveto
          39 vlineto
          32 14 21 51 vhcurveto
          42 hlineto
          45 7 -16 -34 hvcurveto
          -24 90 31 vlineto
          84 -36 43 -96 vhcurveto
          -60 hlineto
          -43 -13 15 29 hvcurveto
          10 vlineto
          29 12 15 43 vhcurveto
          169 156 96 85 -707 -85 511 -69 -69 hlineto
          -105 -50 -37 -87 hvcurveto
          -4 -51 vlineto
          -61 -34 5 50 hvcurveto
          -99 -10 hlineto
          -100 74 -32 120 vhcurveto
          79 hlineto
          6 -5 6 -5 8 -4 rrcurveto
          -32 -18 -17 -31 -47 vvcurveto
          endchar
        </CharString>
        <CharString name="dvEyelash_YA">
          304 462 516 243 callgsubr
          30 64 hvcurveto
          30 332 callsubr
          -105 152 rmoveto
          0 7 -31 callsubr
          -77 vlineto
          -54 -24 -14 -75 vhcurveto
          -56 hlineto
          -61 -35 5 50 hvcurveto
          -98 -9 hlineto
          -101 74 -32 120 vhcurveto
          33 -31 hlineto
          -126 93 -41 121 40 35 4 6 23 181 callgsubr
          -775 -85 vlineto
          endchar
        </CharString>
        <CharString name="dvFive">
          55 callgsubr
        </CharString>
        <CharString name="dvFour">
          111 callsubr
        </CharString>
        <CharString name="dvG">
          -152 212 575 rmoveto
          76 85 -320 31 callgsubr
          endchar
        </CharString>
        <CharString name="dvGA">
          78 517 660 rmoveto
          -549 31 callgsubr
          248 116 238 callsubr
        </CharString>
        <CharString name="dvGH">
          -125 354 164 rmoveto
          -7 -22 -49 -7 -35 hhcurveto
          -62 11 callgsubr
          175 85 -372 175 callgsubr
          119 43 47 8 6 28 vhcurveto
          endchar
        </CharString>
        <CharString name="dvGHA">
          90 529 660 rmoveto
          -561 -85 95 hlineto
          31 callsubr
        </CharString>
        <CharString name="dvGH_MA">
          500 252 150 rmoveto
          -66 11 callgsubr
          388 295 callgsubr
          -12 1 -11 2 -10 vhcurveto
          -6 -29 -32 -5 -32 hhcurveto
          301 47 -43 callgsubr
          -972 175 callgsubr
          131 57 51 13 11 35 vhcurveto
          -17 25 34 -9 46 157 callsubr
        </CharString>
        <CharString name="dvGH_NA">
          485 252 150 rmoveto
          -66 11 callgsubr
          570 224 callsubr
          -146 vlineto
          -13 1 -13 2 -12 vhcurveto
          -6 -29 -32 -4 -32 hhcurveto
          483 243 rmoveto
          -393 -93 callgsubr
          -957 -85 95 vlineto
          96 callsubr
          131 56 51 13 10 35 vhcurveto
          -17 24 33 -9 45 hhcurveto
          105 44 50 91 hvcurveto
          -89 callgsubr
        </CharString>
        <CharString name="dvGH_R">
          -123 352 184 rmoveto
          -6 -34 -30 -4 -37 hhcurveto
          -64 -37 18 56 hvcurveto
          23 vlineto
          32 12 22 38 callgsubr
          44 77 callgsubr
          183 85 -380 125 callgsubr
          -47 298 callsubr
          -36 vlineto
          232 callsubr
          endchar
        </CharString>
        <CharString name="dvGH_RA">
          93 532 660 rmoveto
          -564 -85 97 198 callsubr
          -51 vlineto
          -46 12 -32 34 50 callsubr
          -22 vlineto
          -88 54 -54 99 -9 vhcurveto
          -140 -146 rlineto
          128 hlineto
          149 156 rlineto
          1 -107 100 575 89 hlineto
          -189 hmoveto
          -393 vlineto
          57 callgsubr
          endchar
        </CharString>
        <CharString name="dvGH_YA">
          403 252 163 rmoveto
          -66 -36 17 56 hvcurveto
          34 vlineto
          32 12 22 51 vhcurveto
          43 92 -39 hlineto
          -51 1 -10 21 32 vvcurveto
          46 77 callgsubr
          292 156 callsubr
          -33 6 -29 12 -23 vhcurveto
          -9 -36 -40 -6 -33 hhcurveto
          310 353 -105 callsubr
          192 338 callgsubr
          89 85 -875 -85 95 vlineto
          123 callgsubr
          -48 vlineto
          -46 11 -33 35 -17 vhcurveto
          -37 -15 -15 -35 -49 vvcurveto
          -47 vlineto
          -98 67 -55 131 67 77 18 19 41 vhcurveto
          -17 35 42 -7 46 hhcurveto
          40 36 337 callgsubr
          vlineto
          endchar
        </CharString>
        <CharString name="dvG_BA">
          299 555 132 callgsubr
          -771 151 callgsubr
          vlineto
          -94 callgsubr
          248 343 vlineto
          -74 -429 rmoveto
          -42 callsubr
        </CharString>
        <CharString name="dvG_BHA">
          471 212 575 rmoveto
          49 85 -293 31 callgsubr
          304 -131 52 callsubr
          85 vmoveto
          -57 hlineto
          -110 -44 -49 -86 hvcurveto
          -85 -69 callsubr
        </CharString>
        <CharString name="dvG_BH_YA">
          760 212 575 rmoveto
          42 85 -286 31 callgsubr
          286 -131 254 callsubr
          87 vlineto
          32 9 20 48 vhcurveto
          57 hlineto
          146 hmoveto
          35 20 -7 -28 hvcurveto
          -37 vlineto
          -126 93 -51 286 callsubr
          -546 -85 159 vlineto
          0 8 53 callsubr
          -48 -18 -16 -54 -3 vhcurveto
          20 -18 -32 9 -48 hhcurveto
          -53 101 hlineto
          91 -46 53 -108 -107 136 callsubr
          -4 313 callsubr
          -98 -57 vlineto
          -109 -44 -49 -85 hvcurveto
          -92 vlineto
          -86 44 147 callgsubr
          141 vlineto
          324 181 25 callgsubr
        </CharString>
        <CharString name="dvG_DA">
          277 306 211 -85 callsubr
          -749 31 callgsubr
          248 312 -76 -54 vlineto
          229 callsubr
          endchar
        </CharString>
        <CharString name="dvG_DHA">
          357 333 575 rmoveto
          0 -10 68 callsubr
          -54 vlineto
          -99 69 -53 118 46 33 5 7 24 vhcurveto
          -22 callgsubr
          -546 31 callgsubr
          248 vlineto
          endchar
        </CharString>
        <CharString name="dvG_DH_VA">
          599 849 496 109 callgsubr
          -12 1 -11 1 -10 vhcurveto
          -7 -31 -32 -5 -33 -46 callgsubr
          -520 115 callgsubr
          -46 298 callsubr
          -52 vlineto
          -96 67 -56 130 55 48 12 11 38 vhcurveto
          -35 callsubr
        </CharString>
        <CharString name="dvG_DH_YA">
          674 832 516 -47 callsubr
          -520 115 callgsubr
          -46 vlineto
          -46 11 -32 35 -18 vhcurveto
          26 callgsubr
        </CharString>
        <CharString name="dvG_GA">
          325 763 660 rmoveto
          -795 31 callgsubr
          248 146 -241 vlineto
          -94 callgsubr
          248 116 238 callsubr
        </CharString>
        <CharString name="dvG_GHA">
          357 796 660 rmoveto
          -828 -85 144 -241 hlineto
          -36 -18 -21 -43 vhcurveto
          -12 -16 2 -3 hhcurveto
          -95 vlineto
          -1 3 28 -2 14 hhcurveto
          94 53 52 94 hvcurveto
          248 118 vlineto
          31 callsubr
        </CharString>
        <CharString name="dvG_JA">
          408 554 341 rmoveto
          38 -9 222 callsubr
          -879 31 callgsubr
          248 446 -89 -319 -92 105 297 callsubr
          -34 -25 4 7 -28 vhcurveto
          -91 vlineto
          -7 27 23 65 callgsubr
          64 52 102 hvcurveto
          endchar
        </CharString>
        <CharString name="dvG_LA">
          488 304 167 rmoveto
          -106 callgsubr
          16 24 47 23 21 -5 -5 10 88 callsubr
          -960 151 callgsubr
          vlineto
          -94 callgsubr
          248 526 -99 vlineto
          -37 callgsubr
          -103 -53 -54 -91 hvcurveto
          endchar
        </CharString>
        <CharString name="dvG_MA">
          446 498 197 -43 callgsubr
          -917 31 callgsubr
          248 286 -137 -57 vlineto
          -87 callsubr
          102 vlineto
          endchar
        </CharString>
        <CharString name="dvG_NA">
          445 695 393 rmoveto
          -393 -93 callgsubr
          -917 151 callgsubr
          vlineto
          -94 callgsubr
          248 483 -90 -243 vlineto
          -105 -45 -50 -91 hvcurveto
          -51 callsubr
        </CharString>
        <CharString name="dvG_NNA">
          497 639 575 rmoveto
          108 316 callgsubr
          85 -968 31 callgsubr
          248 107 -318 312 callgsubr
          -100 318 rmoveto
          -28 callsubr
          317 vlineto
          endchar
        </CharString>
        <CharString name="dvG_N_YA">
          753 491 391 rmoveto
          2 241 callsubr
          -125 vlineto
          -32 -10 -20 -43 -44 -10 -12 callsubr
          140 vlineto
          32 10 20 44 vhcurveto
          465 125 -49 callgsubr
          -106 258 callsubr
          -39 -12 -18 -33 -7 vhcurveto
          60 -19 -53 234 callsubr
          43 269 callgsubr
          26 -16 -36 hvcurveto
          -76 vlineto
          -126 93 -51 121 40 326 callgsubr
          -1225 151 callgsubr
          vlineto
          -94 callgsubr
          248 vlineto
          endchar
        </CharString>
        <CharString name="dvG_R">
          63 callgsubr
          endchar
        </CharString>
        <CharString name="dvG_RA">
          47 callgsubr
          endchar
        </CharString>
        <CharString name="dvG_R_YA">
          371 532 516 74 callgsubr
          -105 134 rmoveto
          62 callgsubr
          -55 -24 -13 -75 vhcurveto
          -23 -95 hlineto
          -251 -295 rlineto
          120 hlineto
          72 82 36 41 24 32 16 25 rlinecurve
          -66 33 74 -28 90 300 callsubr
          -845 -85 144 -214 vlineto
          -35 -18 -22 -43 vhcurveto
          -12 -16 2 -3 hhcurveto
          -95 vlineto
          -1 3 28 -2 14 hhcurveto
          94 53 52 94 hvcurveto
          221 vlineto
          endchar
        </CharString>
        <CharString name="dvG_SA">
          476 637 14 rmoveto
          94 vlineto
          -12 -34 -35 -83 callsubr
          -948 31 callgsubr
          248 303 -77 callgsubr
          89 349 rmoveto
          -105 hlineto
          -78 callgsubr
          111 hlineto
          endchar
        </CharString>
        <CharString name="dvG_VA">
          289 539 271 callgsubr
          -155 vlineto
          -65 callgsubr
          -760 151 callgsubr
          vlineto
          -94 callgsubr
          248 327 vlineto
          4 -418 -95 callgsubr
          endchar
        </CharString>
        <CharString name="dvG_YA">
          371 529 516 -66 callgsubr
          -63 callgsubr
          89 85 -842 151 callgsubr
          vlineto
          -94 callgsubr
          248 vlineto
          endchar
        </CharString>
        <CharString name="dvGx">
          -152 212 575 rmoveto
          76 85 -320 31 callgsubr
          -106 -333 -57 callsubr
          endchar
        </CharString>
        <CharString name="dvGxA">
          83 115 -9 -57 callsubr
          407 669 rmoveto
          -549 31 callgsubr
          248 116 238 callsubr
        </CharString>
        <CharString name="dvGx_R">
          63 callgsubr
          113 -467 -57 callsubr
          endchar
        </CharString>
        <CharString name="dvGx_RA">
          47 callgsubr
          81 -145 -57 callsubr
          endchar
        </CharString>
        <CharString name="dvH">
          25 43 144 rmoveto
          -97 72 -53 126 59 46 8 10 32 vhcurveto
          -62 callsubr
          -496 -85 300 -69 -68 hlineto
          -2 callsubr
          357 -399 -42 callgsubr
          endchar
        </CharString>
        <CharString name="dvHA">
          25 43 144 rmoveto
          -97 72 -53 126 59 46 8 10 32 vhcurveto
          -62 callsubr
          -496 -85 300 -69 -68 hlineto
          -2 callsubr
          endchar
        </CharString>
        <CharString name="dvHA_mU">
          25 267 -6 rmoveto
          43 12 -15 -36 -38 -12 -14 -46 hvcurveto
          -67 hlineto
          -35 -16 7 40 -36 hvcurveto
          -31 32 rlineto
          -116 hlineto
          77 -86 rlineto
          -60 50 43 -19 53 hhcurveto
          93 hlineto
          96 41 38 100 102 -42 37 -93 hvcurveto
          -50 hlineto
          -66 -21 24 39 hvcurveto
          39 -38 callgsubr
          -496 -85 300 -69 -68 hlineto
          -2 callsubr
          -41 vlineto
          -93 57 -54 131 1 vhcurveto
          endchar
        </CharString>
        <CharString name="dvHA_mUU">
          21 39 140 rmoveto
          -58 22 -36 46 -18 vhcurveto
          -21 -17 -10 -26 -38 vvcurveto
          -90 41 -36 88 19 66 3 0 vhcurveto
          81 vlineto
          0 -63 -3 -14 -35 -11 15 31 31 9 15 37 vhcurveto
          26 hlineto
          48 15 -4 -43 35 hvcurveto
          95 -119 rlineto
          114 hlineto
          -142 176 rlineto
          60 -48 -40 18 -68 hhcurveto
          -21 hlineto
          301 callgsubr
          13 21 51 vhcurveto
          42 hlineto
          45 8 -16 -34 hvcurveto
          -24 90 31 vlineto
          84 -37 43 -96 vhcurveto
          -59 hlineto
          -43 -14 15 29 hvcurveto
          10 vlineto
          29 13 15 43 vhcurveto
          168 156 96 85 -492 -85 296 -69 -68 hlineto
          -2 callsubr
          endchar
        </CharString>
        <CharString name="dvHA_mvR">
          94 138 201 rmoveto
          29 14 18 45 vhcurveto
          139 hlineto
          29 14 -5 -28 -28 -14 -5 -29 hvcurveto
          -4 hlineto
          -80 -54 -25 -92 -102 72 -18 92 48 44 7 7 29 hvcurveto
          82 vlineto
          -7 -33 -36 -5 -41 hhcurveto
          -61 -21 5 31 27 15 6 26 hvcurveto
          8 hlineto
          89 44 35 82 82 -44 32 -89 hvcurveto
          -141 hlineto
          -43 -14 15 29 hvcurveto
          2 vlineto
          29 12 15 43 vhcurveto
          223 156 114 85 -566 -85 352 -69 -120 hlineto
          -105 -50 -37 -87 hvcurveto
          -11 vlineto
          -45 18 -25 27 -14 vhcurveto
          -27 -13 -19 -23 -47 vvcurveto
          -240 vlineto
          -105 77 -57 126 59 46 8 10 33 vhcurveto
          80 vlineto
          -11 -40 -35 -6 -57 hhcurveto
          -71 -44 25 59 hvcurveto
          endchar
        </CharString>
        <CharString name="dvH_LA">
          623 439 167 rmoveto
          -106 callgsubr
          16 24 47 23 21 -5 -5 10 88 callsubr
          -699 -85 509 -99 vlineto
          -37 callgsubr
          -103 -53 -54 -91 hvcurveto
          endchar
        </CharString>
        <CharString name="dvH_MA">
          258 510 190 rmoveto
          -115 12 hlineto
          79 -42 40 -96 vhcurveto
          -51 hlineto
          -43 -14 15 34 hvcurveto
          2 vlineto
          34 12 16 43 vhcurveto
          188 153 118 hlineto
          -470 vmoveto
          -134 98 604 90 85 -730 -85 323 -69 -87 vlineto
          -105 -50 -34 -93 hvcurveto
          -7 vlineto
          -52 17 -26 31 -16 vhcurveto
          -32 -15 -17 -26 -47 vvcurveto
          -80 287 callsubr
          88 vlineto
          32 17 16 45 vhcurveto
          36 hlineto
          45 9 -16 -32 hvcurveto
          -148 94 61 vlineto
          endchar
        </CharString>
        <CharString name="dvH_NA">
          595 452 344 rmoveto
          -23 -251 vlineto
          -43 -14 15 29 hvcurveto
          10 vlineto
          29 13 15 43 vhcurveto
          168 156 477 224 callsubr
          393 49 rmoveto
          -393 -93 callgsubr
          -1067 -85 300 -69 -68 vlineto
          -2 callsubr
          -41 vlineto
          -92 56 -54 127 56 52 5 9 44 vhcurveto
          86 vlineto
          -9 -48 -39 -3 -60 hhcurveto
          221 callgsubr
          244 -39 -27 callsubr
        </CharString>
        <CharString name="dvH_NNA">
          661 226 -6 rmoveto
          56 52 5 9 44 hvcurveto
          86 vlineto
          -9 -48 -39 -3 -60 hhcurveto
          221 callgsubr
          277 hlineto
          -79 7 49 -47 103 333 callgsubr
          318 108 316 callgsubr
          85 -1133 -85 300 -69 -68 vlineto
          -2 callsubr
          -41 vlineto
          -92 56 -54 127 vhcurveto
          258 581 rmoveto
          -254 -283 vlineto
          -43 -14 15 29 hvcurveto
          10 vlineto
          29 13 15 43 vhcurveto
          168 156 hlineto
          336 hmoveto
          -28 callsubr
          317 vlineto
          endchar
        </CharString>
        <CharString name="dvH_R">
          -6 callsubr
          374 -419 -42 callgsubr
          endchar
        </CharString>
        <CharString name="dvH_RA">
          -6 callsubr
          endchar
        </CharString>
        <CharString name="dvH_VA">
          426 676 271 callgsubr
          -155 vlineto
          -65 callgsubr
          -499 -85 310 vlineto
          4 -418 -95 callgsubr
          endchar
        </CharString>
        <CharString name="dvH_YA">
          254 422 137 rmoveto
          -29 hlineto
          9 13 4 17 25 vvcurveto
          12 vlineto
          79 -47 39 -107 vhcurveto
          -50 hlineto
          -44 -13 16 34 hvcurveto
          3 vlineto
          34 12 17 43 vhcurveto
          192 149 112 -428 hlineto
          -5 -16 -35 -5 -31 hhcurveto
          -166 hmoveto
          -90 159 vlineto
          37 36 5 5 16 hvcurveto
          -83 100 601 90 85 -726 -85 324 -64 -92 vlineto
          -105 -50 -38 -93 hvcurveto
          -3 vlineto
          -52 18 -29 30 -16 vhcurveto
          -32 -17 -17 -28 -47 vvcurveto
          -78 287 callsubr
          87 vlineto
          32 14 21 51 vhcurveto
          38 hlineto
          56 9 -20 -34 hvcurveto
          -15 vlineto
          -32 -20 -6 -36 vhcurveto
          endchar
        </CharString>
        <CharString name="dvI">
          0 141 170 rmoveto
          -98 -243 98 92 hlineto
          -2 11 31 -6 36 hhcurveto
          116 43 48 93 hvcurveto
          33 vlineto
          91 -52 44 -111 vhcurveto
          -24 hlineto
          -44 -13 17 30 hvcurveto
          3 vlineto
          30 12 17 45 vhcurveto
          159 158 89 85 -471 -85 282 -71 -59 hlineto
          -106 -51 -39 -92 hvcurveto
          -8 vlineto
          -91 54 -39 103 vhcurveto
          24 hlineto
          51 12 -23 -30 hvcurveto
          -28 vlineto
          -34 -19 -19 -52 -28 -26 5 2 -12 vhcurveto
          endchar
        </CharString>
        <CharString name="dvII">
          0 346 660 rmoveto
          -15 29 -12 35 26 vvcurveto
          42 27 11 35 14 14 -2 -1 6 vhcurveto
          89 vlineto
          1 -6 -19 4 -39 hhcurveto
          -66 -67 -28 -97 -42 16 -38 14 -29 18 callsubr
        </CharString>
        <CharString name="dvII_Anusvara">
          2 421 706 rmoveto
          35 12 19 26 27 -12 20 -35 -35 -11 -20 -27 -26 11 -19 35 hvcurveto
          -75 -46 rmoveto
          -20 34 -15 49 33 vvcurveto
          48 31 20 41 11 15 -2 -1 6 vhcurveto
          82 vlineto
          1 -6 -19 5 -32 hhcurveto
          -79 -69 -31 -103 -49 18 -51 20 -35 18 callsubr
        </CharString>
        <CharString name="dvJ">
          -56 418 660 rmoveto
          -450 -85 450 hlineto
          1 -89 rmoveto
          -325 -103 callsubr
          119 hlineto
          endchar
        </CharString>
        <CharString name="dvJA">
          163 309 341 66 callgsubr
        </CharString>
        <CharString name="dvJH">
          11 374 143 rmoveto
          302 callsubr
          134 80 -281 hlineto
          99 callgsubr
          122 85 -519 -85 297 -71 -57 hlineto
          -2 callgsubr
          85 vlineto
          178 callsubr
          endchar
        </CharString>
        <CharString name="dvJHA">
          215 210 73 callsubr
          -686 -85 293 -71 -59 hlineto
          -106 -51 -39 -91 hvcurveto
          154 callsubr
        </CharString>
        <CharString name="dvJH_MA">
          613 206 320 rmoveto
          99 callgsubr
          301 215 callgsubr
          -102 -46 -42 -76 -5 hvcurveto
          210 -123 -43 callgsubr
          -1085 -85 297 -71 -57 hlineto
          -2 callgsubr
          85 vlineto
          178 callsubr
          302 callsubr
          102 -46 246 callsubr
        </CharString>
        <CharString name="dvJH_NA">
          613 470 344 rmoveto
          -24 -264 vlineto
          99 callgsubr
          498 224 callsubr
          393 49 rmoveto
          -393 -93 callgsubr
          -1085 -85 297 -71 -57 vlineto
          -2 callgsubr
          85 vlineto
          178 callsubr
          302 callsubr
          117 -42 -27 callsubr
        </CharString>
        <CharString name="dvJH_R">
          75 551 239 rmoveto
          -267 -323 rlineto
          114 hlineto
          80 94 35 42 29 42 9 24 rlinecurve
          -184 61 rmoveto
          282 callsubr
          205 80 -341 hlineto
          308 callsubr
          222 158 115 85 -580 -85 365 -71 -122 hlineto
          -106 251 callgsubr
          -94 57 -36 93 vhcurveto
          3 hlineto
          48 11 -24 -29 hvcurveto
          -33 vlineto
          -33 327 callgsubr
          -233 98 85 vlineto
          -3 13 26 -4 30 hhcurveto
          99 54 38 98 hvcurveto
          endchar
        </CharString>
        <CharString name="dvJH_RA">
          278 367 179 rmoveto
          282 callsubr
          166 hlineto
          1 -48 -229 -276 rlineto
          114 hlineto
          80 94 35 42 19 32 8 24 rlinecurve
          1 -1 rlineto
          -4 -32 -1 -30 -22 vvcurveto
          -29 92 581 90 85 -750 -85 365 -71 -122 vlineto
          -106 251 callgsubr
          -94 58 -36 93 vhcurveto
          2 hlineto
          48 11 -24 -29 hvcurveto
          -30 vlineto
          -34 327 callgsubr
          -232 98 85 vlineto
          -3 13 26 -5 30 hhcurveto
          99 54 38 98 hvcurveto
          66 272 rmoveto
          158 96 -255 -319 vlineto
          308 callsubr
          endchar
        </CharString>
        <CharString name="dvJH_YA">
          523 462 390 rmoveto
          -70 -256 vlineto
          99 callgsubr
          211 hlineto
          62 callgsubr
          -55 -24 -13 -75 vhcurveto
          197 126 -105 callsubr
          -536 -426 rmoveto
          178 callsubr
          302 callsubr
          110 hlineto
          -109 11 88 -45 113 29 callsubr
          89 85 -994 -85 297 -71 -57 vlineto
          -2 callgsubr
          vlineto
          endchar
        </CharString>
        <CharString name="dvJ_BA">
          410 665 180 callgsubr
          -43 -35 -6 -14 -27 hvcurveto
          -383 -103 callsubr
          116 hlineto
          -3 -13 -1 -14 -15 vvcurveto
          -148 144 callsubr
          -881 -85 697 vlineto
          -74 -429 rmoveto
          -42 callsubr
        </CharString>
        <CharString name="dvJ_DA">
          381 409 211 -85 callsubr
          -852 -85 659 -76 -54 hlineto
          -33 -27 -3 -8 -23 hvcurveto
          -396 -91 105 hlineto
          0 9 -20 -39 vvcurveto
          -136 vlineto
          -43 -25 -23 -53 -34 -25 4 7 -28 vhcurveto
          -91 vlineto
          -7 27 23 65 callgsubr
          64 52 102 hvcurveto
          144 vlineto
          39 -9 20 0 vhcurveto
          113 hlineto
          -3 -13 -1 -15 -17 vvcurveto
          endchar
        </CharString>
        <CharString name="dvJ_DDA">
          364 735 -18 callsubr
          -834 -85 638 -71 -55 hlineto
          -40 -33 -6 -12 -25 hvcurveto
          -359 -103 callsubr
          96 hlineto
          -1 -8 -1 -9 -9 vvcurveto
          -13 callgsubr
        </CharString>
        <CharString name="dvJ_JA">
          512 657 341 208 callsubr
          90 85 -984 -85 794 -89 -668 -103 callsubr
          247 hlineto
          0 10 -25 124 callgsubr
          -54 -33 53 callgsubr
          endchar
        </CharString>
        <CharString name="dvJ_JHA">
          565 561 73 callsubr
          -1037 -85 644 -71 -59 hlineto
          -41 -32 -6 -12 -25 hvcurveto
          -361 -103 callsubr
          98 hlineto
          -1 -8 -1 -9 -9 vvcurveto
          154 callsubr
        </CharString>
        <CharString name="dvJ_J_NYA">
          588 419 486 rmoveto
          -325 -103 callsubr
          119 hlineto
          419 175 rmoveto
          -89 -329 -86 116 vlineto
          -19 callsubr
          113 -400 100 575 89 85 -1059 -85 hlineto
          endchar
        </CharString>
        <CharString name="dvJ_J_VA">
          746 996 176 callsubr
          -728 -103 callsubr
          247 hlineto
          0 10 -25 124 callgsubr
          -54 -33 53 callgsubr
          142 vlineto
          38 -8 21 0 vhcurveto
          113 hlineto
          -2 -12 -1 -13 -14 vvcurveto
          -155 vlineto
          -65 callgsubr
          -1217 -85 1028 vlineto
          4 -418 -95 callgsubr
          endchar
        </CharString>
        <CharString name="dvJ_J_YA">
          825 983 -14 callgsubr
          -38 -11 -18 -32 -7 vhcurveto
          57 -6 -49 34 -97 hhcurveto
          -596 -103 callsubr
          247 hlineto
          0 10 -25 124 callgsubr
          -54 -33 53 callgsubr
          142 vlineto
          38 -8 21 0 vhcurveto
          32 hlineto
          64 19 -11 -40 hvcurveto
          -86 vlineto
          -64 callsubr
          -1296 -85 vlineto
          endchar
        </CharString>
        <CharString name="dvJ_KA">
          569 627 575 14 callsubr
          -37 -29 -6 -13 -23 hvcurveto
          -375 -103 callsubr
          113 278 callgsubr
          -167 -76 callgsubr
          -1041 -85 vlineto
          endchar
        </CharString>
        <CharString name="dvJ_MA">
          556 705 304 callgsubr
          102 -137 vlineto
          -199 -241 -99 callgsubr
          199 -352 rmoveto
          337 callsubr
          -1027 -85 640 215 callgsubr
          -19 -17 -1 -3 -15 hvcurveto
          33 -20 -47 19 -74 hhcurveto
          -265 -103 callsubr
          41 hlineto
          39 24 -4 -12 13 hvcurveto
          -14 -21 -6 -28 -32 219 callgsubr
        </CharString>
        <CharString name="dvJ_NA">
          554 804 393 rmoveto
          -393 -93 callgsubr
          -1026 -85 836 320 callgsubr
          -47 -36 -10 -20 -24 hvcurveto
          22 -25 -42 9 -46 hhcurveto
          -247 -103 callsubr
          58 hlineto
          26 19 -5 -9 12 hvcurveto
          -3 -13 -1 -14 -15 vvcurveto
          -51 callsubr
        </CharString>
        <CharString name="dvJ_NY">
          6 530 660 rmoveto
          -562 -85 562 hlineto
          -89 vmoveto
          -395 -86 116 hlineto
          -19 callsubr
          179 hlineto
          endchar
        </CharString>
        <CharString name="dvJ_NYA">
          214 464 575 rmoveto
          -89 -329 -86 116 vlineto
          -19 callsubr
          113 -400 100 575 89 85 -685 -85 hlineto
          endchar
        </CharString>
        <CharString name="dvJ_NY_YA">
          521 251 400 rmoveto
          -19 callsubr
          34 hlineto
          58 16 -11 -39 1 hvcurveto
          -87 vlineto
          -126 86 -51 121 51 33 9 16 20 vhcurveto
          -111 -72 callgsubr
          -992 -85 573 vlineto
          29 11 -20 -39 hvcurveto
          -50 vlineto
          -37 -11 -18 -31 -8 vhcurveto
          58 -6 -56 25 -84 hhcurveto
          -258 -86 hlineto
          423 -126 rmoveto
          55 280 callgsubr
          67 245 callgsubr
          -83 -31 32 63 hvcurveto
          endchar
        </CharString>
        <CharString name="dvJ_R">
          -27 163 34 callsubr
          endchar
        </CharString>
        <CharString name="dvJ_RA">
          180 431 20 callgsubr
          endchar
        </CharString>
        <CharString name="dvJ_TA">
          412 416 138 -67 callgsubr
          -883 -85 694 148 callsubr
          -32 -27 -5 -9 -22 hvcurveto
          -404 -103 callsubr
          123 hlineto
          -5 -16 -2 -17 -19 vvcurveto
          endchar
        </CharString>
        <CharString name="dvJ_TTA">
          372 517 285 callsubr
          -838 -85 648 -79 -33 hlineto
          -28 -24 -3 -7 -21 hvcurveto
          -416 -103 callsubr
          124 hlineto
          -5 -16 -2 -19 -20 162 callgsubr
        </CharString>
        <CharString name="dvJ_VA">
          398 649 176 callsubr
          -381 -103 callsubr
          115 hlineto
          -2 -12 -1 -13 -14 vvcurveto
          -155 vlineto
          -65 callgsubr
          -870 -85 681 vlineto
          4 -418 -95 callgsubr
          endchar
        </CharString>
        <CharString name="dvJ_YA">
          475 633 516 -60 callgsubr
          -89 callsubr
          55 280 callgsubr
          -105 126 rmoveto
          0 8 -31 callsubr
          -50 vlineto
          -36 -11 -18 -29 -8 vhcurveto
          55 -7 -54 27 -87 hhcurveto
          -254 -103 callsubr
          30 hlineto
          60 24 -8 -40 hvcurveto
          -89 vlineto
          -63 callgsubr
          90 85 -947 -85 vlineto
          endchar
        </CharString>
        <CharString name="dvJx">
          -56 99 -127 rmoveto
          44 13 25 32 32 -13 25 -43 -45 -13 284 callsubr
          44 hvcurveto
          319 787 rmoveto
          -450 -85 450 hlineto
          1 -89 rmoveto
          -325 -103 callsubr
          119 hlineto
          endchar
        </CharString>
        <CharString name="dvJxA">
          163 51 -113 rmoveto
          157 callgsubr
          258 454 66 callgsubr
        </CharString>
        <CharString name="dvJx_JxA">
          512 37 10 rmoveto
          -44 -14 284 callsubr
          44 44 14 25 32 32 -13 25 -44 hvcurveto
          355 -114 rmoveto
          44 14 25 32 32 -14 25 -43 -45 -13 284 callsubr
          44 hvcurveto
          265 445 208 callsubr
          90 85 -984 -85 794 -89 -668 -103 callsubr
          247 hlineto
          0 10 -25 124 callgsubr
          -54 -33 53 callgsubr
          endchar
        </CharString>
        <CharString name="dvJx_R">
          -13 171 34 callsubr
          -415 -459 -57 callsubr
          endchar
        </CharString>
        <CharString name="dvJx_RA">
          188 439 20 callgsubr
          -258 -450 -57 callsubr
          endchar
        </CharString>
        <CharString name="dvJx_YA">
          475 36 -107 59 callsubr
          597 623 -60 callgsubr
          -89 callsubr
          55 280 callgsubr
          -105 126 rmoveto
          0 8 -31 callsubr
          -50 vlineto
          -36 -11 -18 -29 -8 vhcurveto
          55 -7 -54 27 -87 hhcurveto
          -254 -92 105 hlineto
          0 9 -19 -39 vvcurveto
          -128 vlineto
          -44 -25 -22 -53 -34 -25 4 7 -28 vhcurveto
          -91 vlineto
          -7 27 23 65 callgsubr
          64 52 102 hvcurveto
          136 46 callsubr
          30 hlineto
          60 24 -8 -40 hvcurveto
          -89 vlineto
          -63 callgsubr
          90 85 -947 -85 vlineto
          endchar
        </CharString>
        <CharString name="dvK">
          3 352 410 rmoveto
          -410 -33 callsubr
          422 -287 85 643 -85 -259 -78 vlineto
          5 17 26 3 20 hhcurveto
          112 33 -55 -86 hvcurveto
          -16 -90 13 vlineto
          36 -11 20 -51 -19 -20 -2 -5 -17 vhcurveto
          endchar
        </CharString>
        <CharString name="dvKA">
          198 255 575 -11 callgsubr
        </CharString>
        <CharString name="dvKH">
          142 483 254 -23 callsubr
        </CharString>
        <CharString name="dvKHA">
          352 390 254 -22 callsubr
          90 85 -823 -85 271 vlineto
          0 12 -19 -40 vvcurveto
          -120 vlineto
          -39 -15 -25 -49 -18 -17 2 2 -16 vhcurveto
          110 -96 -262 vlineto
          -121 78 -68 143 46 54 7 11 36 vhcurveto
          94 vlineto
          -12 -34 -44 -8 -51 -25 callgsubr
          endchar
        </CharString>
        <CharString name="dvKH_KHA">
          915 10 callgsubr
          684 -48 106 callsubr
          -12 164 callgsubr
          12 22 50 27 21 -5 -3 11 vhcurveto
          -213 -150 -22 callsubr
          89 85 -1386 -85 271 vlineto
          -101 callsubr
          468 hlineto
          0 11 -31 callsubr
          -120 vlineto
          -39 -14 -25 -49 159 callsubr
          vhcurveto
          21 vlineto
          91 -42 264 callgsubr
          27 23 2 5 19 vhcurveto
          -81 24 73 -45 116 hhcurveto
          46 54 7 11 36 hvcurveto
          -93 callsubr
          268 -83 hlineto
          3 -12 -27 4 -31 hhcurveto
          -109 -34 -51 -92 hvcurveto
          endchar
        </CharString>
        <CharString name="dvKH_MA">
          757 810 197 196 callsubr
          103 vlineto
          33 9 5 callsubr
          96 267 callgsubr
          103 29 callgsubr
          -1229 -85 271 hlineto
          -101 callsubr
          475 215 callgsubr
          -28 -23 -3 -6 -19 hvcurveto
          45 -18 -42 23 -80 hhcurveto
          -5 callsubr
          30 24 3 6 20 vhcurveto
          -42 20 41 -23 75 323 callsubr
          -526 -98 -74 callsubr
          endchar
        </CharString>
        <CharString name="dvKH_NA">
          747 10 callgsubr
          514 139 rmoveto
          -393 -93 callgsubr
          -1219 -85 271 vlineto
          -101 callsubr
          662 -90 -243 hlineto
          -42 -32 -8 -15 -24 hvcurveto
          23 -21 -35 12 -57 hhcurveto
          -5 callsubr
          30 25 4 8 19 vhcurveto
          -45 21 43 -24 73 hhcurveto
          105 44 50 91 hvcurveto
          -89 callgsubr
        </CharString>
        <CharString name="dvKH_R">
          -32 callgsubr
          endchar
        </CharString>
        <CharString name="dvKH_RA">
          351 -34 callsubr
          endchar
        </CharString>
        <CharString name="dvKH_SHA">
          757 483 254 rmoveto
          68 vlineto
          33 11 22 49 50 11 -22 -33 vhcurveto
          -68 86 callsubr
          207 85 -574 -10 callgsubr
          610 647 98 callgsubr
          -112 -111 -51 -55 -91 -12 1 -12 1 -4 263 callgsubr
          -2 15 8 vvcurveto
          32 12 26 50 51 12 -24 -32 vhcurveto
          -128 340 callgsubr
          -7 -28 1 1 -31 vhcurveto
          83 -4 -38 45 -110 hhcurveto
          -114 -38 -49 -91 hvcurveto
          -68 126 callgsubr
          84 vlineto
          -4 12 28 -7 32 hhcurveto
          105 48 51 91 hvcurveto
          endchar
        </CharString>
        <CharString name="dvKH_TA">
          594 397 13 -34 callgsubr
          86 241 -74 callsubr
          endchar
        </CharString>
        <CharString name="dvKH_VA">
          590 10 callgsubr
          362 -97 -95 callgsubr
          -4 85 158 callsubr
          -53 -39 -13 -24 -26 hvcurveto
          18 -21 -32 10 -47 hhcurveto
          -5 callsubr
          32 25 5 9 20 vhcurveto
          -44 21 46 -23 74 145 callsubr
          -1062 -85 271 vlineto
          -101 callsubr
          506 hlineto
          endchar
        </CharString>
        <CharString name="dvKH_YA">
          665 10 callgsubr
          340 262 32 callgsubr
          -11 -18 -32 -7 vhcurveto
          60 -9 -34 42 -96 hhcurveto
          -5 callsubr
          49 32 11 19 22 vhcurveto
          -40 38 61 -18 72 29 callsubr
          89 85 -1136 -85 271 vlineto
          -101 callsubr
          endchar
        </CharString>
        <CharString name="dvKHx">
          143 41 -125 rmoveto
          43 287 callgsubr
          45 hvcurveto
          442 379 -23 callsubr
        </CharString>
</ttFont>
